<svg xmlns="http://www.w3.org/2000/svg" viewBox="0 0 500 500"><g id="freepik--background-simple--inject-251"><path d="M337.31,41l-2.19.81c-18.51,6.84-32,23.07-34.52,42.47a51.16,51.16,0,0,0-.42,7.53,55.53,55.53,0,0,0,26.24,45.4c9.2,5.62,20.42,8.86,26.94,17.4,8.48,11.11,5.8,26.67,2.73,40.21s-5.71,29.1,2.82,40.18c5.34,6.94,14.15,10.52,22.87,11.73,23.08,3.22,46.6-8.74,60.68-27s19.61-41.94,19.44-65c-.24-32.25-11.7-65.11-34.8-88S368.71,32.34,337.31,41Z" style="fill:#f5f5f5"></path><path d="M88.4,353.46l2.13.4c17.93,3.43,36.4-3,47.65-17.14a47.29,47.29,0,0,0,3.93-5.77,51.4,51.4,0,0,0,.92-48.51c-4.61-8.85-11.95-16.79-13-26.67-1.41-12.86,8.15-23.9,17.05-33.16s18.44-20.33,17-33.19c-.92-8-6.19-15.1-12.51-20.23-16.75-13.58-41.1-15.35-61-7.6s-35.58,23.86-46.46,42.18C28.83,229.44,22.21,261,29.57,290.13S59.39,345.29,88.4,353.46Z" style="fill:#f5f5f5"></path><circle cx="411.19" cy="311.18" r="33.78" style="fill:#f5f5f5"></circle><circle cx="84.9" cy="86" r="39.25" style="fill:#f5f5f5"></circle></g><g id="freepik--Floor--inject-251"><path d="M460.27,477.5c0,.14-94.15.26-210.26.26s-210.28-.12-210.28-.26,94.13-.26,210.28-.26S460.27,477.36,460.27,477.5Z" style="fill:#263238"></path></g><g id="freepik--popcorns-2--inject-251"><path d="M278.77,179.28a8.44,8.44,0,0,0,3.69-14,6.5,6.5,0,0,0-8.35-7.5A10.3,10.3,0,0,0,259,166.94a16.2,16.2,0,1,0,2,27.64,9.85,9.85,0,0,1,2.9-1.72c1.77-.48,3.59.38,5.31,1a14.85,14.85,0,0,0,10.52.22c3.33-1.34,6-4.62,5.94-8.2S282.34,178.87,278.77,179.28Z" style="fill:#fff"></path><path d="M278.77,179.28a5,5,0,0,1,1.64,0,6.49,6.49,0,0,1,3.92,2.52,6.94,6.94,0,0,1,1.38,3.12,7.19,7.19,0,0,1-.51,4,10.18,10.18,0,0,1-7.58,5.91,14.92,14.92,0,0,1-5.76-.08,20.17,20.17,0,0,1-3-.84,17.47,17.47,0,0,0-3-.94,4.14,4.14,0,0,0-3,.5c-.92.55-1.78,1.3-2.79,1.89A16.91,16.91,0,0,1,246,196.78a16.08,16.08,0,0,1-6.44-4.36,17.24,17.24,0,0,1-3.83-7.09,15.87,15.87,0,0,1,.11-8.29,17.3,17.3,0,0,1,3.61-6.65,15.81,15.81,0,0,1,6-4.25,16.89,16.89,0,0,1,13.69.58l-.35.21a10.53,10.53,0,0,1,15.43-9.3h-.16a6.69,6.69,0,0,1,8.57,7.72l0-.14a8.79,8.79,0,0,1,2.33,6.84,8.31,8.31,0,0,1-2.27,4.91,8.61,8.61,0,0,1-2.76,2,7,7,0,0,1-1.11.37s.38-.14,1.07-.45a8.88,8.88,0,0,0,2.68-2,8.23,8.23,0,0,0,2.14-4.82,8.54,8.54,0,0,0-2.31-6.59l-.06-.06v-.08a6.51,6.51,0,0,0-1.68-5.68,6.42,6.42,0,0,0-6.45-1.59l-.08,0-.07,0a10.35,10.35,0,0,0-9.46.07,10.24,10.24,0,0,0-5.29,8.88v.39l-.35-.18a16.45,16.45,0,0,0-13.28-.54,15.47,15.47,0,0,0-5.82,4.12,16.89,16.89,0,0,0-3.5,6.45,15.27,15.27,0,0,0-.1,8,16.52,16.52,0,0,0,3.7,6.87,15.51,15.51,0,0,0,6.23,4.24,16.17,16.17,0,0,0,7.19.86,16.44,16.44,0,0,0,6.56-2.14c1-.56,1.81-1.3,2.8-1.89a4.65,4.65,0,0,1,3.31-.54,18.63,18.63,0,0,1,3,1,19.73,19.73,0,0,0,2.89.85,14.82,14.82,0,0,0,5.62.11,9.85,9.85,0,0,0,7.38-5.67,7,7,0,0,0,.54-3.87,6.75,6.75,0,0,0-1.31-3,6.53,6.53,0,0,0-3.77-2.54A7.09,7.09,0,0,0,278.77,179.28Z" style="fill:#263238"></path><g style="opacity:0.30000000000000004"><path d="M257.64,181.23a27.9,27.9,0,0,1,1.25-10.71c-2.58,3-3.67,5.89-3,11.26a10.46,10.46,0,0,0,7.12,8.77C260.58,188.25,258.1,184.7,257.64,181.23Z"></path></g><path d="M276.51,179.05s-.07.21-.33.5a3.61,3.61,0,0,1-1.39.95,3.68,3.68,0,0,1-2.57,0,3.92,3.92,0,0,1-2.32-2.3l.21.16a10.83,10.83,0,0,1-3.42-.84,8,8,0,0,1-3.5-2.81,6.69,6.69,0,0,1-1.13-3.5,5.42,5.42,0,0,1,.46-2.43,2.14,2.14,0,0,1,.49-.76,7,7,0,0,0-.58,3.17,6.57,6.57,0,0,0,1.15,3.25,7.9,7.9,0,0,0,3.32,2.61,10.79,10.79,0,0,0,3.25.82h.16l.05.15a3.57,3.57,0,0,0,2,2.07,3.45,3.45,0,0,0,2.32.07A5.16,5.16,0,0,0,276.51,179.05Z" style="fill:#263238"></path><path d="M263.42,191.23a3.64,3.64,0,0,1-.73-.62,22,22,0,0,1-1.76-1.91,17.73,17.73,0,0,1-2.15-3.23,14.32,14.32,0,0,1-1.44-4.54,19.83,19.83,0,0,1,.64-8.56,17.66,17.66,0,0,1,.95-2.43,3,3,0,0,1,.49-.82c.08,0-.53,1.25-1.08,3.35a21.05,21.05,0,0,0-.48,8.38,16.19,16.19,0,0,0,3.36,7.62C262.54,190.2,263.49,191.17,263.42,191.23Z" style="fill:#263238"></path><path d="M283.68,190a4.13,4.13,0,0,1-1.61.31,10.74,10.74,0,0,1-3.95-.32,6.54,6.54,0,0,1-3.33-2.18,2.63,2.63,0,0,1-.7-1.49c.08,0,.32.54,1,1.25a7.07,7.07,0,0,0,3.2,1.92,13.57,13.57,0,0,0,3.79.45A6.59,6.59,0,0,1,283.68,190Z" style="fill:#263238"></path><path d="M227.2,200.36c-2-5.69-10.44-3.72-14.13-.48a10.61,10.61,0,0,0-3.5,5.57,8.3,8.3,0,0,0,8.79,10,3.43,3.43,0,0,0,2.81,4.17,4.87,4.87,0,0,0,4.73-2.58,9.61,9.61,0,0,0,4.26,6.34,5.58,5.58,0,0,0,4.54,9.65,5.92,5.92,0,0,0,4.67,5.25,9.51,9.51,0,0,0,10.88-8.61c0-3.74-2.93-6.73-5.65-9.29a15.35,15.35,0,0,0,5.8-4.11,21.3,21.3,0,0,0,2.19-3.06c.39-.65.76-1.32,1.11-2,2.24-4.37,3.38-9.94.61-14a16.34,16.34,0,0,0-4.63-4.08c-3.93-2.63-8.7-5.17-13.16-3.62a15.54,15.54,0,0,0-6.92,4.87,11.25,11.25,0,0,0-2.4,5.94" style="fill:#ebebeb"></path><path d="M227.2,200.36a6.21,6.21,0,0,1,.12-1.22,10.85,10.85,0,0,1,1.25-3.32,14.49,14.49,0,0,1,1.48-2.13,13.78,13.78,0,0,1,2.3-2.07,17,17,0,0,1,3.09-1.8,9.16,9.16,0,0,1,3.94-.89c2.9,0,5.89,1.28,8.75,3a39.23,39.23,0,0,1,4.31,3,11.47,11.47,0,0,1,1.91,2,9.62,9.62,0,0,1,1.3,2.58,12.51,12.51,0,0,1,.28,5.94,20.87,20.87,0,0,1-2,5.9,25.07,25.07,0,0,1-3.62,5.43,15.76,15.76,0,0,1-5.59,3.85l.08-.42a30.57,30.57,0,0,1,3.55,3.79,10,10,0,0,1,2.15,4.93,7.91,7.91,0,0,1-1.46,5.31,10.67,10.67,0,0,1-4.31,3.61,7.94,7.94,0,0,1-6.52.31,6,6,0,0,1-3.73-5.11l.29.25A5.84,5.84,0,0,1,230,223.23l0,.39a9.89,9.89,0,0,1-4.37-6.51l.44.08a5.05,5.05,0,0,1-5.08,2.66,3.85,3.85,0,0,1-2.41-1.64,3.21,3.21,0,0,1-.46-2.8l.23.29a8.5,8.5,0,0,1-8.89-10.65,10.89,10.89,0,0,1,3.69-5.45,13.66,13.66,0,0,1,5-2.49,11.15,11.15,0,0,1,4.49-.37,6,6,0,0,1,3,1.32l.46.44c.13.15.23.32.33.45l.27.4.16.36c.19.43.26.65.26.65s-.12-.21-.32-.62l-.17-.35-.28-.38c-.1-.13-.2-.29-.33-.43l-.47-.42a5.81,5.81,0,0,0-3-1.23,10.93,10.93,0,0,0-4.39.42,13.44,13.44,0,0,0-4.89,2.49,10.62,10.62,0,0,0-3.54,5.3,8.12,8.12,0,0,0,8.51,10.13l.33,0-.11.31a3.21,3.21,0,0,0,2.54,3.85,4.59,4.59,0,0,0,4.59-2.45l.32-.57.12.65a9.39,9.39,0,0,0,4.16,6.17l.28.17-.24.22a5.34,5.34,0,0,0,4.34,9.22l.28,0v.29a5.52,5.52,0,0,0,3.42,4.65,7.48,7.48,0,0,0,6.1-.31,10.15,10.15,0,0,0,4.1-3.43,7.4,7.4,0,0,0,1.37-5,9.49,9.49,0,0,0-2-4.68,30,30,0,0,0-3.48-3.72l-.29-.27.36-.15a15.23,15.23,0,0,0,5.42-3.71,25.17,25.17,0,0,0,3.56-5.31,21,21,0,0,0,2-5.77,12.13,12.13,0,0,0-.24-5.73,9.46,9.46,0,0,0-3.07-4.42,38.3,38.3,0,0,0-4.24-3c-2.83-1.74-5.75-3-8.55-3a8.87,8.87,0,0,0-3.82.83,17.59,17.59,0,0,0-3.07,1.74,14.27,14.27,0,0,0-2.28,2,14.57,14.57,0,0,0-1.49,2.08,11,11,0,0,0-1.31,3.25c-.08.39-.13.69-.16.9A1,1,0,0,1,227.2,200.36Z" style="fill:#263238"></path><path d="M242.88,216.46s0,.09-.13.23a2.43,2.43,0,0,1-.56.5,4.5,4.5,0,0,1-2.69.63,8.32,8.32,0,0,1-3.94-1.22,4.73,4.73,0,0,1-2.25-4.49l.34.28a5.21,5.21,0,0,1-1.07.23,9.13,9.13,0,0,1-2.84-.25,4.27,4.27,0,0,1-3.61-5.41,9,9,0,0,1,1.08-2.8,3.93,3.93,0,0,1,.61-.91,4.93,4.93,0,0,1-.43,1,9.91,9.91,0,0,0-.89,2.76,4.5,4.5,0,0,0,1.13,3.87,4.29,4.29,0,0,0,2.22,1,8.57,8.57,0,0,0,2.68.23,4.11,4.11,0,0,0,.95-.2l.4-.14-.06.42a4.3,4.3,0,0,0,2,4,8.14,8.14,0,0,0,3.71,1.25,4.58,4.58,0,0,0,2.56-.43A8,8,0,0,0,242.88,216.46Z" style="fill:#263238"></path><path d="M237,220.64a9.56,9.56,0,0,1-1.22,0,6.41,6.41,0,0,0-2.71.81,13.41,13.41,0,0,0-2.34,1.71c-.57.5-.92.82-1,.77s.21-.45.72-1a9,9,0,0,1,2.35-1.91,5.59,5.59,0,0,1,3-.72C236.55,220.34,237,220.58,237,220.64Z" style="fill:#263238"></path><path d="M226.4,210.88c.15.05-.29,1.59-.37,3.55s.21,3.54.06,3.57a9,9,0,0,1,.31-7.12Z" style="fill:#263238"></path><g style="opacity:0.30000000000000004"><path d="M240.88,217.57a6.72,6.72,0,0,1-5-1,5.24,5.24,0,0,1-2.42-4.38c-2.41.53-5,.22-6.63-1.63a5.29,5.29,0,0,0,5.47,2.69,4.3,4.3,0,0,0,1.8,3.36,8.84,8.84,0,0,0,3.64,1.49,5.82,5.82,0,0,0,4.1-.28,6.45,6.45,0,0,0,2.52-3C243.35,216,242.43,217.31,240.88,217.57Z"></path></g><path d="M329.13,217.78a15,15,0,0,0-16.69-1.89,24.42,24.42,0,0,0-8.58-7.44c-3.46-1.63-7.68-2-11.07-.21s-5.62,5.88-4.58,9.56a5.38,5.38,0,0,0,.4,9.59c-4.56-1.86-8,.57-10.35,3.41a9.86,9.86,0,0,0-1.05,10.45,12.54,12.54,0,0,0,8.59,6.46,17.27,17.27,0,0,0,10.83-1.43c3.66-1.7,6.93-4.65,8.11-8.51a17,17,0,0,0,15.54,7,16.26,16.26,0,0,0,13.19-10.67A15.61,15.61,0,0,0,329.13,217.78Z" style="fill:#f5f5f5"></path><path d="M329.13,217.78s.07.05.2.16l.56.51a13.45,13.45,0,0,1,1.86,2.27,15.91,15.91,0,0,1,2.49,10.6,14.76,14.76,0,0,1-3,7.21A16.67,16.67,0,0,1,324,244a15.83,15.83,0,0,1-10.25.38,17.32,17.32,0,0,1-9.21-6.49l.42-.07a13.36,13.36,0,0,1-4.68,6.5,19.23,19.23,0,0,1-7.58,3.54,15.67,15.67,0,0,1-8.65-.41,12.59,12.59,0,0,1-6.84-5.65,10.1,10.1,0,0,1,1.08-11.46,11.41,11.41,0,0,1,4.73-3.45,7.94,7.94,0,0,1,5.68.25l-.2.46a5.63,5.63,0,0,1-.41-10l-.12.27a7.9,7.9,0,0,1,.4-5.11,9.72,9.72,0,0,1,3-3.89,11.37,11.37,0,0,1,8.85-1.78,16.72,16.72,0,0,1,7.38,3.53,30.53,30.53,0,0,1,4.94,5.18l-.2,0a14.61,14.61,0,0,1,7.34-1.68,15.64,15.64,0,0,1,5.48,1.19,14.44,14.44,0,0,1,3,1.74c.31.24.54.44.69.57s.23.2.22.21a2.48,2.48,0,0,1-.25-.17c-.17-.14-.41-.32-.71-.54a15.18,15.18,0,0,0-3-1.65,15.39,15.39,0,0,0-5.42-1.1,14.23,14.23,0,0,0-7.19,1.71l-.12.06-.08-.11a30,30,0,0,0-4.92-5.09,16.3,16.3,0,0,0-7.23-3.41,11,11,0,0,0-8.5,1.73,9.18,9.18,0,0,0-2.86,3.72,7.39,7.39,0,0,0-.37,4.8l.05.18-.16.1a5.13,5.13,0,0,0,.39,9.15l-.2.47a7.48,7.48,0,0,0-5.33-.24,10.94,10.94,0,0,0-4.5,3.31,9.6,9.6,0,0,0-1,10.87,12.1,12.1,0,0,0,6.56,5.41,15.21,15.21,0,0,0,8.37.4,18.5,18.5,0,0,0,7.38-3.44,12.85,12.85,0,0,0,4.53-6.24l.15-.47.28.4a17,17,0,0,0,8.95,6.35,15.46,15.46,0,0,0,10-.34,16.43,16.43,0,0,0,7.15-5.32,14.61,14.61,0,0,0,2.94-7,15.78,15.78,0,0,0-2.33-10.47A16.29,16.29,0,0,0,329.13,217.78Z" style="fill:#263238"></path><path d="M290.25,234.54c-1.05-1.08-2.19-1.56-2.19-3.07-1.9-.37-3.71.91-5.12,2.24a11.49,11.49,0,0,0-2.63,3.27,5,5,0,0,0-.25,4.09c.27.64.91,1.26,1.57,1.05.36-.11.65-.46,1-.45.58,0,.78.74,1.08,1.24a1.87,1.87,0,0,0,3.34-1.67c1,.91,2.69.34,3.72-.58a3.85,3.85,0,0,0,1.37-2.23C292.38,237,291.3,235.61,290.25,234.54Z" style="fill:#FF3365"></path><path d="M311,215.6a2,2,0,0,1,.23.8,7.57,7.57,0,0,1,0,2.29,19.9,19.9,0,0,1-2.66,7,22.71,22.71,0,0,0-2.76,6.77,14.91,14.91,0,0,0-.11,3,2.18,2.18,0,0,1-.23-.8,7.92,7.92,0,0,1,0-2.28,20.19,20.19,0,0,1,2.68-7,22.59,22.59,0,0,0,2.75-6.78A15.67,15.67,0,0,0,311,215.6Z" style="fill:#263238"></path><path d="M305,218c-.23-1,.59-2.81.6-3.13,0-.77-1.44-.53-2.09-.11s-1.11,1.07-1.74,1.5c-1.7,1.18-4.15.54-5.93,1.59a7.07,7.07,0,0,0-2.51,3.54c-.23.53-.44,1.21,0,1.62s.45-.1.82-.24.85-.49,1.21-.66c2.46-1.16,4.86-1.06,7.83.59.6-1.36,2.24-2.6,3.7-2.31A4.85,4.85,0,0,1,305,218Z" style="fill:#FF3365"></path><path d="M306.8,226.81a12.69,12.69,0,0,0-2.16-2.77,9.37,9.37,0,0,0-3.23-1.91,8.6,8.6,0,0,0-4.54-.32,8.46,8.46,0,0,0-4,2.16,9.4,9.4,0,0,0-2.17,3.07,13.29,13.29,0,0,0-.82,3.41,2.77,2.77,0,0,1-.07-1,7.84,7.84,0,0,1,.55-2.59,9.29,9.29,0,0,1,2.17-3.28,8.42,8.42,0,0,1,9-1.94,9.25,9.25,0,0,1,3.33,2.1,7.51,7.51,0,0,1,1.56,2.13A3.22,3.22,0,0,1,306.8,226.81Z" style="fill:#263238"></path><path d="M307.4,213.29c0,.07-.45.3-1,.92a5.28,5.28,0,0,0-1.19,2.89,2.65,2.65,0,0,0,.31,1.61,3.88,3.88,0,0,0,.94,1c.65.52,1.1.81,1.06.88a3.14,3.14,0,0,1-1.28-.58,3.88,3.88,0,0,1-1.13-1.1,3,3,0,0,1-.42-1.9,4.91,4.91,0,0,1,1.44-3.1C306.81,213.34,307.38,213.23,307.4,213.29Z" style="fill:#263238"></path><path d="M287.17,241.48a5.09,5.09,0,0,0,2.41-.2,3.29,3.29,0,0,0,1.83-1.71,3.42,3.42,0,0,0,0-3,11.61,11.61,0,0,0-2.07-2.52,5.51,5.51,0,0,1-1.46-2.4,2.73,2.73,0,0,1,.18-1.89c.22-.41.45-.54.46-.53s-.14.21-.28.61a2.81,2.81,0,0,0,0,1.72,5.58,5.58,0,0,0,1.46,2.16,11,11,0,0,1,2.19,2.62,3.84,3.84,0,0,1,0,3.45,3.6,3.6,0,0,1-2.13,1.85,3.65,3.65,0,0,1-1.9.11A1.31,1.31,0,0,1,287.17,241.48Z" style="fill:#263238"></path><g style="opacity:0.30000000000000004"><path d="M311.17,217.09a17.54,17.54,0,0,1-2,6.48,43.9,43.9,0,0,0-3,6.15c-.67,2.18-1,3.52-.49,5.73a12.24,12.24,0,0,1,.53-4,11.64,11.64,0,0,1,1.87-3c2-2.63,2.45-3.21,3.24-5.35C312,221.37,311.66,219.69,311.17,217.09Z"></path></g><path d="M285.55,223.58A8.87,8.87,0,0,0,284,208.65c-1.48-.74-3.26-1.13-4.24-2.46a8.88,8.88,0,0,1-1.08-3c-.86-3.18-3.18-6.17-6.38-7s-7.09,1.33-7.43,4.62a10.17,10.17,0,0,0-9.08,1,11.42,11.42,0,0,0-4.65,7.88,14.5,14.5,0,0,0-3.77,17.86,15.16,15.16,0,0,0,17.32,7.08,9.35,9.35,0,0,0,18,4.31,7.84,7.84,0,0,0,2.89-15.37Z" style="fill:#fff"></path><path d="M285.55,223.58a6.63,6.63,0,0,1,1.54.54,8.4,8.4,0,0,1,4.43,6.43,7.21,7.21,0,0,1-.69,4A8.46,8.46,0,0,1,287.7,238a8,8,0,0,1-5.07,1.19l.2-.11a9.59,9.59,0,0,1-3.85,4.38,9.47,9.47,0,0,1-14.51-8.79l.31.26a15.35,15.35,0,0,1-12.87-2.07,13.81,13.81,0,0,1-6-8.58,15.46,15.46,0,0,1-.35-3.66A14.95,14.95,0,0,1,251,209.5l-.09.16a14.14,14.14,0,0,1,1.65-4.71,9.78,9.78,0,0,1,3.38-3.5,10.42,10.42,0,0,1,9-.82l-.32.2a5.46,5.46,0,0,1,2.87-4.08,6.73,6.73,0,0,1,4.75-.76,8.17,8.17,0,0,1,4,2.33,11.2,11.2,0,0,1,2.29,3.69c.53,1.32.61,2.72,1.24,3.8a5.58,5.58,0,0,0,2.92,2.06,10.85,10.85,0,0,1,3.06,1.71,9.17,9.17,0,0,1,2.08,2.45,8.83,8.83,0,0,1,1.2,5.25,9.19,9.19,0,0,1-1.23,3.82,9,9,0,0,1-1.57,2,4.74,4.74,0,0,1-.67.53,10,10,0,0,0,2.11-2.56,9.23,9.23,0,0,0,1.14-3.76,8.55,8.55,0,0,0-1.23-5.08,8.79,8.79,0,0,0-2-2.35,10.43,10.43,0,0,0-3-1.64,5.91,5.91,0,0,1-3.1-2.19c-.7-1.2-.76-2.6-1.29-3.85a10.59,10.59,0,0,0-2.23-3.53,7.69,7.69,0,0,0-3.74-2.2,6.23,6.23,0,0,0-4.42.73,5,5,0,0,0-2.63,3.72l0,.31-.29-.11a10,10,0,0,0-8.61.81,9.41,9.41,0,0,0-3.21,3.33,13.55,13.55,0,0,0-1.57,4.53l0,.1-.08.06a14.5,14.5,0,0,0-5.27,10.69,15.34,15.34,0,0,0,.33,3.52,14.53,14.53,0,0,0,1.22,3.28,14.08,14.08,0,0,0,4.6,5,14.86,14.86,0,0,0,12.44,2l.34-.1,0,.35a9,9,0,0,0,13.82,8.4,9.25,9.25,0,0,0,3.71-4.18l.06-.13.14,0a7.67,7.67,0,0,0,4.84-1.11,8.11,8.11,0,0,0,3-3.27,6.93,6.93,0,0,0,.71-3.81,8.32,8.32,0,0,0-4.23-6.36A13.46,13.46,0,0,0,285.55,223.58Z" style="fill:#263238"></path><path d="M265,234a3.36,3.36,0,0,1,0-1.65,8.8,8.8,0,0,1,1.47-3.69,8.9,8.9,0,0,1,2.93-2.7,3.52,3.52,0,0,1,1.54-.58,11.33,11.33,0,0,1-1.35.89,10.33,10.33,0,0,0-4.23,6.15A9.85,9.85,0,0,1,265,234Z" style="fill:#263238"></path><path d="M251.44,208.52a16.32,16.32,0,0,0-.22,4.67,13.88,13.88,0,0,0,1.47,4.81,12.66,12.66,0,0,0,3.95,4.65c.83.65,2,1,2.62,2.08a2.94,2.94,0,0,1,.2,1.66,11.07,11.07,0,0,0-.14,1.45,6.28,6.28,0,0,0,2,4.41,7.21,7.21,0,0,0,2.89,1.72c.77.22,1.23.24,1.22.29s-.11,0-.33,0a4.57,4.57,0,0,1-.95-.12,6.82,6.82,0,0,1-3.08-1.65,6.58,6.58,0,0,1-2.21-4.67c0-1,.39-2.05,0-2.88s-1.54-1.2-2.46-1.88a12.91,12.91,0,0,1-4.08-4.87,13.69,13.69,0,0,1-1.41-5,11.52,11.52,0,0,1,.2-3.49,6.06,6.06,0,0,1,.26-.91A1.12,1.12,0,0,1,251.44,208.52Z" style="fill:#263238"></path><path d="M270.67,215.16c-.48-.47-1.06-.82-1.56-1.27-2-1.83-2.35-5.08-4.49-6.78a5.26,5.26,0,0,0-6.9.71,6.35,6.35,0,0,0-.7,7.12,8,8,0,0,0,6.19,3.94c2.53.26,4.67.47,6.77-1a1.16,1.16,0,0,0,1.44-1A2.19,2.19,0,0,0,270.67,215.16Z" style="fill:#FF3365"></path><path d="M276.6,205.31a6,6,0,0,0-3.21-3.46,2.28,2.28,0,0,0-2.34.16,2,2,0,0,0-.53,1.78,7.22,7.22,0,0,0,.63,1.83,20.09,20.09,0,0,1,1.42,10.5l1,.52c2.34-1.14,3.34-4,3.55-6.56A10.7,10.7,0,0,0,276.6,205.31Z" style="fill:#FF3365"></path><path d="M287.55,229a7,7,0,0,0-4.53-1.26,14.26,14.26,0,0,1-4.76-.45c-1.06-.38-2.11-1.36-1.88-2.47a5.46,5.46,0,0,1,.85-1.52,3.39,3.39,0,0,0-.2-3.6c-.76-1-2.77-.62-4-.34h0a3.51,3.51,0,0,0-2.7,2.1,3.57,3.57,0,0,0,2.14,4.49,1.19,1.19,0,0,0-.58,1.68,3.08,3.08,0,0,0,1.58,1.25,4.57,4.57,0,0,1,1.72,1.08c1,1.15.41,2.85,0,4.29a6,6,0,0,0,0,4,2.74,2.74,0,0,0,3.28,1.63c2.07-.82,1.73-4.2,3.59-5.44,1.7-1.13,4.36.16,5.9-1.19C289.18,232.14,288.77,230,287.55,229Z" style="fill:#FF3365"></path><path d="M285.65,223.48c-.06.14-1.77-.49-4-.69s-4,.09-4-.06a10.07,10.07,0,0,1,8,.75Z" style="fill:#263238"></path><path d="M272.5,216.64a29.6,29.6,0,0,0-.49-7.37,41.53,41.53,0,0,0-2.59-6.93,7.06,7.06,0,0,1,1.23,1.83,20.33,20.33,0,0,1,1.86,5,17.2,17.2,0,0,1,.4,5.31A6.61,6.61,0,0,1,272.5,216.64Z" style="fill:#263238"></path><g style="opacity:0.30000000000000004"><path d="M265.41,234.26c-3.58-.18-6.63-3.54-6.31-6.95a4.75,4.75,0,0,0,0-2.4,4.22,4.22,0,0,0-1.91-1.61,13.51,13.51,0,0,1-5.71-14.78s-1.61,2.53-1.13,7.42c.64,6.53,7.07,8.15,7.41,10.23s.29,4.77,1.66,6.63S265.41,234.26,265.41,234.26Z"></path></g><g style="opacity:0.30000000000000004"><path d="M274.42,208.87a9.34,9.34,0,0,0-3.68-6.45c-.18-.13-.44-.25-.61-.11s-.09.45,0,.67a22.33,22.33,0,0,1,2.4,13.3l.17-.1A11.56,11.56,0,0,0,274.42,208.87Z"></path></g><path d="M195,188.84a8.89,8.89,0,0,0-14.94,1.54c-.74,1.48-1.13,3.26-2.46,4.24a8.91,8.91,0,0,1-3,1.08c-3.19.86-6.18,3.17-7,6.38s1.34,7.09,4.62,7.43a10.17,10.17,0,0,0,1,9.08c1.73,2.64,4.62,4.08,7.87,4.65A14.52,14.52,0,0,0,199,227a15.18,15.18,0,0,0,7.09-17.32,9.35,9.35,0,0,0,4.31-17.95,7.84,7.84,0,0,0-15.37-2.9Z" style="fill:#fafafa"></path><path d="M195,188.84a5.74,5.74,0,0,1,.54-1.53,8.06,8.06,0,0,1,3.2-3.35,8.17,8.17,0,0,1,3.22-1.08,7.16,7.16,0,0,1,4,.69,8.43,8.43,0,0,1,3.42,3.13,8,8,0,0,1,1.19,5.07l-.11-.2a9.59,9.59,0,0,1,4.38,3.85A9.47,9.47,0,0,1,206,209.93l.25-.32a15.37,15.37,0,0,1-2.06,12.88,14.62,14.62,0,0,1-5.19,4.77,14.46,14.46,0,0,1-3.4,1.26,14.9,14.9,0,0,1-3.66.34,15,15,0,0,1-11.07-5.46l.16.09a14.14,14.14,0,0,1-4.71-1.65,9.86,9.86,0,0,1-3.5-3.38,10.46,10.46,0,0,1-.82-9l.2.32a5.48,5.48,0,0,1-4.08-2.87,6.69,6.69,0,0,1-.75-4.75,8.09,8.09,0,0,1,2.33-4,10.9,10.9,0,0,1,3.68-2.29c1.32-.54,2.72-.61,3.8-1.24a5.62,5.62,0,0,0,2.07-2.92,10.38,10.38,0,0,1,1.71-3.06,9.14,9.14,0,0,1,2.44-2.08,8.68,8.68,0,0,1,5.25-1.2,9.19,9.19,0,0,1,3.82,1.23,9,9,0,0,1,2,1.56,6.59,6.59,0,0,1,.54.67,10.33,10.33,0,0,0-2.57-2.1,9,9,0,0,0-3.76-1.14,8.53,8.53,0,0,0-5.08,1.22,9.18,9.18,0,0,0-2.35,2,10.37,10.37,0,0,0-1.64,3,5.89,5.89,0,0,1-2.19,3.11c-1.2.7-2.6.76-3.85,1.29a10.72,10.72,0,0,0-3.53,2.22,7.63,7.63,0,0,0-2.19,3.75,6.22,6.22,0,0,0,.72,4.42,5,5,0,0,0,3.73,2.63l.31,0-.12.29a10,10,0,0,0,.81,8.61,9.38,9.38,0,0,0,3.33,3.2,13.62,13.62,0,0,0,4.54,1.58l.09,0,.06.07A14.41,14.41,0,0,0,192,228.34a14.38,14.38,0,0,0,3.53-.33,13.31,13.31,0,0,0,8.27-5.81,14.86,14.86,0,0,0,2-12.44l-.1-.34.35,0a9.16,9.16,0,0,0,4.22-17.53l-.13,0,0-.14a7.59,7.59,0,0,0-1.11-4.84,8.21,8.21,0,0,0-3.27-3,6.92,6.92,0,0,0-3.81-.7,7.86,7.86,0,0,0-3.14,1,8.12,8.12,0,0,0-3.22,3.22A12.3,12.3,0,0,0,195,188.84Z" style="fill:#263238"></path><path d="M205.38,209.37a3.65,3.65,0,0,1-1.64,0,9,9,0,0,1-6.4-4.4,3.52,3.52,0,0,1-.58-1.54,9.24,9.24,0,0,1,.89,1.35,10.75,10.75,0,0,0,2.68,2.69,10.62,10.62,0,0,0,3.48,1.54A9.87,9.87,0,0,1,205.38,209.37Z" style="fill:#263238"></path><path d="M179.93,223a16.06,16.06,0,0,0,4.67.23,14,14,0,0,0,4.81-1.47,12.66,12.66,0,0,0,4.65-4c.66-.83,1-2,2.08-2.62a2.86,2.86,0,0,1,1.66-.2,13.11,13.11,0,0,0,1.45.14,6.32,6.32,0,0,0,4.41-2,7.21,7.21,0,0,0,1.72-2.89c.23-.77.24-1.23.29-1.22s0,.11,0,.33a4.41,4.41,0,0,1-.12.94,6.81,6.81,0,0,1-1.64,3.09,6.62,6.62,0,0,1-4.68,2.21c-1,0-2.05-.39-2.88,0s-1.2,1.54-1.88,2.45a12.83,12.83,0,0,1-4.86,4.09,14,14,0,0,1-5,1.41,11.52,11.52,0,0,1-3.49-.2,6.44,6.44,0,0,1-.91-.26C180,223,179.93,223,179.93,223Z" style="fill:#263238"></path><path d="M186.57,203.73c-.47.48-.82,1.06-1.27,1.56-1.83,2-5.08,2.35-6.78,4.49a5.27,5.27,0,0,0,.71,6.9,6.35,6.35,0,0,0,7.12.7,8,8,0,0,0,3.94-6.19c.26-2.54.47-4.67-1-6.78a1.16,1.16,0,0,0-1-1.44A2.2,2.2,0,0,0,186.57,203.73Z" style="fill:#FF3365"></path><path d="M176.72,197.79a6.08,6.08,0,0,0-3.46,3.21,2.29,2.29,0,0,0,.16,2.35,2,2,0,0,0,1.78.53,7.09,7.09,0,0,0,1.83-.63,20.09,20.09,0,0,1,10.5-1.42l.52-1c-1.14-2.34-4-3.34-6.55-3.55A10.87,10.87,0,0,0,176.72,197.79Z" style="fill:#FF3365"></path><path d="M200.4,186.85a7.06,7.06,0,0,0-1.26,4.53,14.06,14.06,0,0,1-.45,4.76c-.38,1.06-1.36,2.11-2.47,1.88a5.72,5.72,0,0,1-1.52-.85,3.39,3.39,0,0,0-3.6.2c-1,.76-.62,2.77-.34,4h0a3.51,3.51,0,0,0,2.1,2.7,3.56,3.56,0,0,0,4.49-2.15,1.19,1.19,0,0,0,1.69.58,3,3,0,0,0,1.24-1.57,4.69,4.69,0,0,1,1.08-1.73c1.15-1,2.85-.4,4.3,0a5.91,5.91,0,0,0,4,0,2.74,2.74,0,0,0,1.63-3.27c-.82-2.08-4.21-1.73-5.45-3.59-1.13-1.71.16-4.36-1.19-5.9C203.55,185.22,201.43,185.62,200.4,186.85Z" style="fill:#FF3365"></path><path d="M194.89,188.75c.14.06-.49,1.77-.69,4s.1,4-.06,4a10.18,10.18,0,0,1,.75-8Z" style="fill:#263238"></path><path d="M188.05,201.9a29.53,29.53,0,0,0-7.36.49c-4,.91-6.85,2.74-6.94,2.58a7.17,7.17,0,0,1,1.84-1.22,20.06,20.06,0,0,1,5-1.87,17.84,17.84,0,0,1,5.31-.4A6.35,6.35,0,0,1,188.05,201.9Z" style="fill:#263238"></path><g style="opacity:0.30000000000000004"><path d="M205.67,209c-.18,3.58-3.54,6.63-6.95,6.31a4.75,4.75,0,0,0-2.4,0,4.23,4.23,0,0,0-1.61,1.91,13.49,13.49,0,0,1-14.78,5.7s2.54,1.62,7.42,1.14c6.53-.64,8.15-7.07,10.23-7.41s4.78-.29,6.64-1.66S205.67,209,205.67,209Z"></path></g><g style="opacity:0.30000000000000004"><path d="M180.29,200a9.31,9.31,0,0,0-6.45,3.69c-.13.18-.26.43-.12.61s.46.09.67,0a22.33,22.33,0,0,1,13.3-2.41l-.1-.16A11.54,11.54,0,0,0,180.29,200Z"></path></g><path d="M235.64,220.42a12.48,12.48,0,0,0-8.49-1.37,10.78,10.78,0,0,0-6.75,4.23,5.31,5.31,0,0,0,2.69,5.34,8.57,8.57,0,0,0,6.18.69,23.56,23.56,0,0,0,5.84-2.47c1.33-.72,2.81-1.71,2.89-3.21S236.86,221.11,235.64,220.42Z" style="fill:#FF3365"></path><g style="opacity:0.30000000000000004"><path d="M222.06,226.73l.12.92a2.12,2.12,0,0,0,1.55,1.33,5.7,5.7,0,0,0,2.1,0,25.1,25.1,0,0,0,6.79-1.67,11.64,11.64,0,0,0,5.38-4.42A18.94,18.94,0,0,0,222.06,226.73Z"></path></g><path d="M244.67,224.77c-6.09-3.43-13.78-1-19.93,2.31l-1.2.75c-1.59-1.7-3.23-3.49-3.8-5.74s.33-5.06,2.53-5.8c1.87-.63,4.14.36,5.8-.7a3.5,3.5,0,0,0,1-4.38,6.79,6.79,0,0,0-3.66-3.09,13.51,13.51,0,0,0-16.88,6.74,7.86,7.86,0,0,0-7.79,13.49,11.62,11.62,0,0,0-.72,12.27,12.17,12.17,0,0,0,21.74,6.67,21,21,0,0,0,16.54,3.77c5.69-1.25,10.75-5.57,12.3-11.18S249.75,227.63,244.67,224.77Z" style="fill:#fafafa"></path><path d="M244.67,224.77a1,1,0,0,1,.22.12l.63.37c.27.17.58.42,1,.71a12.23,12.23,0,0,1,1.18,1.14,13.16,13.16,0,0,1,2.43,3.86,14.17,14.17,0,0,1,1.08,6.05,13.9,13.9,0,0,1-2.43,7.18A17,17,0,0,1,242,250a18,18,0,0,1-10,1.57,22.55,22.55,0,0,1-10.39-4.08l.31,0a12.42,12.42,0,0,1-22.18-6.79l0,.11a11.91,11.91,0,0,1,.69-12.48l0-.07.05.36a8.12,8.12,0,0,1,8.05-13.93l-.33.13a13.28,13.28,0,0,1,2.05-3.14,14.08,14.08,0,0,1,2.81-2.37,14.41,14.41,0,0,1,6.73-2.22,12.38,12.38,0,0,1,6.65,1.38,6.52,6.52,0,0,1,2.48,2.24,4.11,4.11,0,0,1,.51,3.22,3.24,3.24,0,0,1-.77,1.45,3.08,3.08,0,0,1-1.41.83,10.84,10.84,0,0,1-3,.13,4.53,4.53,0,0,0-2.68.55,4.09,4.09,0,0,0-1.56,2.12,5.55,5.55,0,0,0-.23,2.58,7.28,7.28,0,0,0,.85,2.38,20.39,20.39,0,0,0,3,3.81l-.21,0c6-3.67,11.77-5,15.61-4.63a13.55,13.55,0,0,1,4.27,1,12.1,12.1,0,0,1,1.34.69,1.82,1.82,0,0,1-.35-.15c-.24-.09-.56-.28-1-.46a14.23,14.23,0,0,0-4.24-.92c-3.8-.29-9.46,1.06-15.43,4.73l-.11.08-.1-.1a20.21,20.21,0,0,1-3-3.86,7.56,7.56,0,0,1-.91-2.5,5.91,5.91,0,0,1,.23-2.76,4.44,4.44,0,0,1,1.7-2.34,5,5,0,0,1,2.92-.63,9.79,9.79,0,0,0,2.92-.13,2.59,2.59,0,0,0,1.87-2,3.69,3.69,0,0,0-.48-2.88,6.07,6.07,0,0,0-2.31-2.06,11.72,11.72,0,0,0-6.4-1.31,13.86,13.86,0,0,0-6.5,2.15,14,14,0,0,0-2.7,2.29,13.1,13.1,0,0,0-2,3l-.1.23-.23-.09a7.6,7.6,0,0,0-7.53,13.05l.2.15-.15.21,0,.07a11.38,11.38,0,0,0-.67,11.91l0,0v.06a11.94,11.94,0,0,0,21.31,6.55l.14-.18.18.13a22.15,22.15,0,0,0,10.17,4,17.6,17.6,0,0,0,9.75-1.49,16.58,16.58,0,0,0,6.66-5.63,13.47,13.47,0,0,0,2.43-7,14,14,0,0,0-1-5.95,13,13,0,0,0-5.22-6.28Z" style="fill:#263238"></path><path d="M222.66,228.38A28.81,28.81,0,0,0,220,226a13.92,13.92,0,0,0-16.19-.19,30.28,30.28,0,0,0-2.77,2.31,3.25,3.25,0,0,1,.58-.8,12.43,12.43,0,0,1,2-1.81,13.67,13.67,0,0,1,16.62.19,12.15,12.15,0,0,1,1.94,1.87A2.7,2.7,0,0,1,222.66,228.38Z" style="fill:#263238"></path><path d="M213,223.05a2.91,2.91,0,0,1-1.39-.62,7.56,7.56,0,0,1-3.23-6.35,3,3,0,0,1,.31-1.49,8.86,8.86,0,0,1,.06,1.48,8.45,8.45,0,0,0,.91,3.35,8.92,8.92,0,0,0,2.17,2.72C212.51,222.71,213,223,213,223.05Z" style="fill:#263238"></path><g style="opacity:0.30000000000000004"><path d="M222.29,246a19.61,19.61,0,0,1,.91-16.37s-3.88,4.71-3.46,9.34A12.88,12.88,0,0,0,222.29,246Z"></path></g><path d="M222.29,246a7.71,7.71,0,0,1-.94-2.31,18.17,18.17,0,0,1-.66-6,18.36,18.36,0,0,1,1.32-5.88,7.65,7.65,0,0,1,1.19-2.19,22.62,22.62,0,0,0-.91,16.37Z" style="fill:#263238"></path><path d="M209.15,240.93c0,.06-.42.39-1.26.71a8.7,8.7,0,0,1-6.83-.38c-.8-.41-1.21-.79-1.17-.84a16.32,16.32,0,0,0,4.58,1.21A15.74,15.74,0,0,0,209.15,240.93Z" style="fill:#263238"></path><path d="M334,200.71a18.72,18.72,0,0,0-2.39-7c-1.37-2-3.77-3.6-6.21-3.28A8.45,8.45,0,0,0,309,191.54c-3.92-4.4-9.75-7.91-15.61-7.39a17.36,17.36,0,0,0-14,9.51,15.79,15.79,0,0,0,2,16.6,14.5,14.5,0,0,0,16,4.13,10.21,10.21,0,0,0,6,6.16,26.72,26.72,0,0,0,8.65,1.71c3.66.27,7.56.37,10.73-1.49s5-6.38,2.83-9.33a4.48,4.48,0,0,0,5.72.83,7.22,7.22,0,0,0,3.12-5.27A19.38,19.38,0,0,0,334,200.71Z" style="fill:#fff"></path><path d="M334,200.71a1.29,1.29,0,0,1,.08.32c.05.23.12.55.2.94a20.42,20.42,0,0,1,.38,3.71,8.55,8.55,0,0,1-1.92,5.59,5.11,5.11,0,0,1-3.32,1.78,4.31,4.31,0,0,1-3.92-1.51l.26-.2a5.5,5.5,0,0,1,.84,1.8,6.16,6.16,0,0,1,.11,2.06,8,8,0,0,1-1.75,4,8.5,8.5,0,0,1-3.81,2.61,15.81,15.81,0,0,1-4.84.85,45,45,0,0,1-5.15-.2,31.65,31.65,0,0,1-5.35-.81,14,14,0,0,1-5.15-2.38,9.37,9.37,0,0,1-3.45-4.76l.33.16a14.54,14.54,0,0,1-11.82-.69,14.15,14.15,0,0,1-4.89-4,13.57,13.57,0,0,1-1.67-2.79,14.07,14.07,0,0,1-1.05-3.11,16,16,0,0,1,2.11-12.23,17.63,17.63,0,0,1,9.52-7.13,15.72,15.72,0,0,1,5.71-.75,16.74,16.74,0,0,1,5.4,1.34,24.54,24.54,0,0,1,8.33,6.16l-.38.11a8.8,8.8,0,0,1,3.43-5.4,8.33,8.33,0,0,1,5.65-1.7,8.88,8.88,0,0,1,5,2.06,8.58,8.58,0,0,1,2.7,4l-.16-.11a5.8,5.8,0,0,1,3.29.63A7.89,7.89,0,0,1,331,192.8a11.27,11.27,0,0,1,2.17,4.11,22.24,22.24,0,0,1,.83,3.8s0-.08-.07-.24l-.16-.72c-.15-.64-.36-1.59-.75-2.79a11.4,11.4,0,0,0-2.19-4,7.52,7.52,0,0,0-2.28-1.75,5.47,5.47,0,0,0-3.13-.57h-.12l0-.12a8.23,8.23,0,0,0-2.64-3.8,8.52,8.52,0,0,0-4.77-1.95,8,8,0,0,0-5.38,1.65,8.48,8.48,0,0,0-3.24,5.15l-.08.44-.3-.33a24.06,24.06,0,0,0-8.18-6,16.07,16.07,0,0,0-5.25-1.3,15.69,15.69,0,0,0-5.53.74,17.24,17.24,0,0,0-9.24,6.94,15.5,15.5,0,0,0-2,11.84,14.4,14.4,0,0,0,1,3,13,13,0,0,0,1.61,2.68,13.71,13.71,0,0,0,4.71,3.9,14.09,14.09,0,0,0,11.41.68l.25-.1.08.26a9,9,0,0,0,3.26,4.52,13.75,13.75,0,0,0,5,2.31,32.46,32.46,0,0,0,5.28.81,44.36,44.36,0,0,0,5.1.22,15.45,15.45,0,0,0,4.71-.8,8,8,0,0,0,3.65-2.48,7.52,7.52,0,0,0,1.69-3.74,6,6,0,0,0-.08-1.94,5.15,5.15,0,0,0-.77-1.68l.26-.2a4,4,0,0,0,3.63,1.41,4.89,4.89,0,0,0,3.16-1.65,8.39,8.39,0,0,0,1.93-5.42,22.15,22.15,0,0,0-.29-3.69c-.07-.4-.12-.72-.15-1A1.86,1.86,0,0,1,334,200.71Z" style="fill:#263238"></path><path d="M304.08,197.56s.16.22.36.66a10.69,10.69,0,0,1,.59,1.94,13,13,0,0,1-.42,6.66,12.1,12.1,0,0,1-3.75,5.53,7,7,0,0,1-2.36,1.45c0-.08.88-.59,2.12-1.73a12.78,12.78,0,0,0,3.49-5.41,13.67,13.67,0,0,0,.55-6.43C304.43,198.56,304,197.6,304.08,197.56Z" style="fill:#263238"></path><path d="M326.32,190.43a13.63,13.63,0,0,1-1.77.2A10.82,10.82,0,0,0,320.6,192a10.56,10.56,0,0,0-3.09,2.85,15.38,15.38,0,0,1-1,1.47,4.06,4.06,0,0,1,.69-1.68,9.28,9.28,0,0,1,3.13-3.08,9.38,9.38,0,0,1,4.18-1.34A4,4,0,0,1,326.32,190.43Z" style="fill:#263238"></path><g style="opacity:0.30000000000000004"><path d="M319.2,191.28a7.89,7.89,0,0,0-3,5.64,10.17,10.17,0,0,1,9-6.59A6.25,6.25,0,0,0,319.2,191.28Z"></path></g><g style="opacity:0.30000000000000004"><path d="M299.18,213.22a9.38,9.38,0,0,0,5.72-13.37,13.52,13.52,0,0,1-5.54,13.38"></path></g><path d="M211.37,224C210,217.8,204.27,213,198,212.2s-11.89,2.88-15.65,8a21,21,0,0,0-22.57,1.49,8.17,8.17,0,0,0-2.82,3.3,3.8,3.8,0,0,0,.64,4.1c1.88,1.81,5,.44,7.16-1a16.71,16.71,0,0,0-2.89,7.1,8,8,0,0,0,2.45,7c2,1.65,5.24,1.79,7-.07-2.17,4.36-.35,10,3.45,13.06,4.92,3.92,11.83,3.78,18.11,3.44,2.62-.13,5.67-.53,7-2.8,3.42.35,6.23-3.15,6.45-6.57s-1.38-6.67-2.94-9.72C209.27,237.25,212.73,230.2,211.37,224Z" style="fill:#fff"></path><path d="M211.37,224a1.49,1.49,0,0,1,.07.31c0,.21.12.53.18.95a13.73,13.73,0,0,1-.06,3.71,14.66,14.66,0,0,1-2.09,5.58,13.07,13.07,0,0,1-6.06,5.16l.08-.22a44.14,44.14,0,0,1,1.92,4.07,14.33,14.33,0,0,1,1.08,4.85,8,8,0,0,1-1.6,5.12,5.78,5.78,0,0,1-5.07,2.54L200,256a5.73,5.73,0,0,1-3.84,2.5,25.85,25.85,0,0,1-4.75.49,40.47,40.47,0,0,1-10.06-.51,14.35,14.35,0,0,1-9.07-5.51,11.94,11.94,0,0,1-2.07-5.22,9.7,9.7,0,0,1,.84-5.67l.41.29a5.22,5.22,0,0,1-4.88,1.29,5.83,5.83,0,0,1-2.41-1.14,6.61,6.61,0,0,1-1.7-2.09,9.33,9.33,0,0,1-.7-6.55,19,19,0,0,1,2.7-5.88l.36.35a14.15,14.15,0,0,1-2.52,1.34,6.43,6.43,0,0,1-2.82.55,3.4,3.4,0,0,1-2.52-1.38,4,4,0,0,1-.61-2.76,7.07,7.07,0,0,1,3-4.44,20.67,20.67,0,0,1,4.52-2.6,21.3,21.3,0,0,1,18.48,1l-.28.06a22.69,22.69,0,0,1,5.92-5.64A15.61,15.61,0,0,1,195,212a14.68,14.68,0,0,1,6.35.85,16.46,16.46,0,0,1,4.73,2.66,15.35,15.35,0,0,1,4.56,6,12.72,12.72,0,0,1,.63,1.88c.1.43.14.66.14.66s-.08-.22-.21-.65a13.42,13.42,0,0,0-.67-1.84,15.4,15.4,0,0,0-4.6-5.81,16.38,16.38,0,0,0-4.67-2.58,14.66,14.66,0,0,0-6.23-.78,15.39,15.39,0,0,0-6.73,2.42,22.38,22.38,0,0,0-5.78,5.57l-.11.15-.16-.1a20.91,20.91,0,0,0-18.08-.92,20.54,20.54,0,0,0-4.41,2.55,6.62,6.62,0,0,0-2.83,4.11,3.43,3.43,0,0,0,.52,2.41,2.86,2.86,0,0,0,2.15,1.16,9.08,9.08,0,0,0,5-1.81l1-.63-.64,1a18.41,18.41,0,0,0-2.62,5.71,8.88,8.88,0,0,0,.65,6.2,5.54,5.54,0,0,0,3.77,3,4.68,4.68,0,0,0,4.39-1.14l1.14-1.18-.72,1.48a9.31,9.31,0,0,0-.8,5.37,11.46,11.46,0,0,0,2,5,13.74,13.74,0,0,0,8.75,5.32,39.9,39.9,0,0,0,9.94.53,25.24,25.24,0,0,0,4.67-.46,5.3,5.3,0,0,0,3.57-2.28l.07-.12h.14a5.36,5.36,0,0,0,4.7-2.35,7.66,7.66,0,0,0,1.54-4.87,13.83,13.83,0,0,0-1-4.73,43.78,43.78,0,0,0-1.87-4.06l-.08-.16.16-.06a12.79,12.79,0,0,0,6-5,14.56,14.56,0,0,0,2.13-5.46,14.72,14.72,0,0,0,.14-3.68l-.13-1A1.29,1.29,0,0,1,211.37,224Z" style="fill:#263238"></path><path d="M197.4,238.46a2.9,2.9,0,0,1-.92-.22,9,9,0,0,1-1-.39,12.46,12.46,0,0,1-1.34-.61,19,19,0,0,1-3.25-2.07,21.17,21.17,0,0,1-5.92-7.28,19.82,19.82,0,0,1-1.36-3.6,13,13,0,0,1-.32-1.45,6.47,6.47,0,0,1-.16-1.1,3.62,3.62,0,0,1,0-1c.1,0,.24,1.33.88,3.39a22.05,22.05,0,0,0,1.43,3.49,24.57,24.57,0,0,0,2.53,3.87,25.07,25.07,0,0,0,3.26,3.26,23.38,23.38,0,0,0,3.12,2.12C196.15,238,197.44,238.37,197.4,238.46Z" style="fill:#263238"></path><path d="M191.78,253.23c-.07-.06.54-.71,1.31-1.9a15.61,15.61,0,0,0,2.12-5.06,15.94,15.94,0,0,0,.23-5.49c-.2-1.4-.47-2.25-.39-2.27a6,6,0,0,1,.75,2.21,14,14,0,0,1-2.4,10.82A6.44,6.44,0,0,1,191.78,253.23Z" style="fill:#263238"></path><g style="opacity:0.30000000000000004"><path d="M183.16,221.44a14.62,14.62,0,0,0,1.27,7.41,18,18,0,0,0-8.14,8,16,16,0,0,1,6.21-5.37,3.14,3.14,0,0,1,1.85-.42,3.38,3.38,0,0,1,1.29.63c1.78,1.22,4,2.58,5.75,3.79a51.24,51.24,0,0,1-5.39-5.84,21,21,0,0,1-2.84-8.17"></path></g><path d="M173.6,223.67c0,.16-2.21.74-4.71,2.08s-4.24,2.87-4.35,2.75a15.1,15.1,0,0,1,9.06-4.83Z" style="fill:#263238"></path><path d="M175.2,237.52a18.19,18.19,0,0,1-3.86,4.75,18.19,18.19,0,0,1,3.86-4.75Z" style="fill:#263238"></path></g><g id="freepik--box--inject-251"><polygon points="148.11 240.43 186.28 477.43 322.79 477.43 352.47 240.43 148.11 240.43" style="fill:#f5f5f5"></polygon><polygon points="161.53 247.77 190.95 477.48 202.6 477.48 177.92 247.77 161.53 247.77" style="fill:#FF3365"></polygon><polygon points="192.36 247.72 216.8 477.43 228.45 477.43 208.75 247.72 192.36 247.72" style="fill:#FF3365"></polygon><polygon points="226 247.72 239.84 477.43 251.49 477.43 242.39 247.72 226 247.72" style="fill:#FF3365"></polygon><polygon points="258.89 247.72 263.63 477.43 275.28 477.43 275.28 247.72 258.89 247.72" style="fill:#FF3365"></polygon><polygon points="288.68 247.72 285.78 477.43 297.43 477.43 305.06 247.72 288.68 247.72" style="fill:#FF3365"></polygon><polygon points="323.96 247.72 307.17 477.43 318.82 477.43 340.35 247.72 323.96 247.72" style="fill:#FF3365"></polygon><circle cx="250.29" cy="355.05" r="54.24" style="fill:#FF3365"></circle><path d="M304.53,355.05s0-.3-.07-.88-.08-1.46-.15-2.58c0-.57-.07-1.2-.11-1.9s-.22-1.44-.34-2.26l-.42-2.64a8.5,8.5,0,0,0-.3-1.45l-.4-1.51a51.7,51.7,0,0,0-6-14.41A53.81,53.81,0,0,0,283,312.08l-2.34-1.75c-.82-.54-1.68-1-2.54-1.56l-1.29-.78a10.32,10.32,0,0,0-1.34-.74l-2.81-1.35c-.47-.22-.94-.46-1.43-.67l-1.49-.55-3-1.11c-1-.34-2.12-.56-3.19-.85a25.42,25.42,0,0,0-3.27-.74,50.78,50.78,0,0,0-6.83-.8c-1.16,0-2.34-.15-3.52-.13l-3.57.18c-.6,0-1.21,0-1.81.12l-1.8.27c-1.2.2-2.42.34-3.63.59a56.85,56.85,0,0,0-7.2,2.12l-1.8.65-.89.34-.87.42-3.49,1.68c-1.14.62-2.23,1.34-3.36,2-.55.35-1.14.65-1.67,1.05l-1.59,1.19a61.11,61.11,0,0,0-6.12,5.21l-2.75,3-.69.76-.62.82-1.23,1.65-1.25,1.66-1.08,1.78-1.09,1.79-.54.9c-.17.3-.31.63-.47.94-.6,1.26-1.22,2.53-1.83,3.81s-1,2.66-1.46,4a53.49,53.49,0,0,0,0,34.07l1.47,4,1.83,3.8.46.95.55.9,1.08,1.78,1.09,1.78,1.24,1.66,1.24,1.66.62.82.69.76,2.74,3a60.12,60.12,0,0,0,6.13,5.21l1.59,1.19c.53.4,1.12.7,1.67,1.05,1.13.67,2.22,1.39,3.36,2l3.49,1.68.87.42c.29.13.6.23.89.34l1.8.66a56.79,56.79,0,0,0,7.2,2.11c1.21.25,2.43.39,3.63.59l1.8.27c.6.08,1.21.08,1.81.12l3.57.18c1.19,0,2.36-.09,3.53-.13a51.16,51.16,0,0,0,6.83-.8,25.8,25.8,0,0,0,3.27-.74c1.07-.29,2.15-.51,3.18-.85l3-1.11,1.5-.55,1.42-.67,2.81-1.35c.94-.43,1.76-1,2.64-1.53s1.72-1,2.54-1.55L283,398a53.81,53.81,0,0,0,13.74-15.34,51.7,51.7,0,0,0,6-14.41l.4-1.51a9.64,9.64,0,0,0,.31-1.45c.14-.94.28-1.82.41-2.64s.27-1.57.34-2.26.08-1.33.11-1.9q.1-1.68.15-2.58c0-.58.07-.87.07-.87s0,.29,0,.87-.06,1.46-.11,2.59c0,.56-.05,1.2-.08,1.9s-.2,1.45-.32,2.27-.25,1.71-.39,2.66a8.7,8.7,0,0,1-.3,1.45l-.38,1.52A51.51,51.51,0,0,1,297,382.82a54.14,54.14,0,0,1-13.76,15.49l-2.35,1.76c-.83.54-1.7,1-2.56,1.57a28.72,28.72,0,0,1-2.65,1.55l-2.82,1.36-1.43.69-1.51.55-3.06,1.13c-1,.34-2.13.57-3.21.86a28,28,0,0,1-3.29.76,51.87,51.87,0,0,1-6.89.81c-1.17,0-2.36.16-3.55.15l-3.6-.18c-.61,0-1.22,0-1.82-.12l-1.82-.27c-1.21-.2-2.45-.34-3.67-.59a58.84,58.84,0,0,1-7.27-2.12l-1.81-.66-.9-.34-.88-.42-3.52-1.7c-1.15-.62-2.25-1.35-3.39-2-.56-.36-1.16-.66-1.69-1.06l-1.61-1.2a62.19,62.19,0,0,1-6.18-5.25L209,390.52l-.69-.77-.63-.83-1.25-1.67-1.25-1.67-1.1-1.8L203,382l-.55-.91-.47-.95c-.61-1.28-1.23-2.56-1.85-3.84s-1-2.69-1.48-4a54,54,0,0,1,0-34.4c.5-1.35,1-2.69,1.49-4s1.23-2.57,1.85-3.85c.15-.32.3-.64.46-.95l.55-.91,1.1-1.8,1.1-1.79,1.25-1.68,1.25-1.67.63-.83.7-.76,2.77-3.05a61.18,61.18,0,0,1,6.19-5.25l1.6-1.2c.53-.4,1.13-.7,1.69-1.06,1.14-.67,2.24-1.4,3.39-2l3.52-1.7.88-.42.9-.34,1.81-.66a58.84,58.84,0,0,1,7.27-2.12c1.22-.25,2.45-.39,3.67-.58l1.81-.28c.61-.08,1.22-.07,1.82-.12l3.61-.17c1.19,0,2.37.1,3.55.14a51.52,51.52,0,0,1,6.88.81,27.74,27.74,0,0,1,3.3.76c1.07.29,2.16.52,3.2.86l3.06,1.13,1.51.55c.49.22,1,.46,1.44.69l2.82,1.36a11.07,11.07,0,0,1,1.35.75l1.3.79c.86.54,1.73,1,2.55,1.58l2.35,1.76A54.19,54.19,0,0,1,297,327.27a51.51,51.51,0,0,1,5.95,14.51l.38,1.52a8.7,8.7,0,0,1,.3,1.45c.14.95.27,1.83.39,2.66s.26,1.57.32,2.27.06,1.34.08,1.91c0,1.12.08,2,.11,2.58S304.53,355.05,304.53,355.05Z" style="fill:#263238"></path><path d="M250.29,412.29a57.25,57.25,0,1,1,57.24-57.24A57.31,57.31,0,0,1,250.29,412.29Zm0-108.49a51.25,51.25,0,1,0,51.24,51.25A51.31,51.31,0,0,0,250.29,303.8Z" style="fill:#f5f5f5"></path><path d="M250.29,412.29a57.25,57.25,0,1,1,57.24-57.24A57.31,57.31,0,0,1,250.29,412.29Zm0-108.49a51.25,51.25,0,1,0,51.24,51.25A51.31,51.31,0,0,0,250.29,303.8Z" style="fill:none"></path><path d="M250.29,303.8l.83,0,2.44.1,1.8.07c.66.07,1.37.2,2.15.3l2.5.37a8.59,8.59,0,0,1,1.37.29l1.44.36a48.58,48.58,0,0,1,13.7,5.63,51.16,51.16,0,0,1,14.63,13l1.67,2.22c.51.78,1,1.6,1.49,2.41s1.05,1.62,1.46,2.51l1.29,2.66c.21.45.43.9.65,1.36s.35.94.52,1.42c.36,1,.71,1.92,1.07,2.89s.54,2,.82,3a27,27,0,0,1,.72,3.11,49.53,49.53,0,0,1,.77,6.5c0,1.11.15,2.23.13,3.36s-.11,2.26-.17,3.4c0,.57,0,1.15-.11,1.72l-.26,1.72c-.19,1.14-.32,2.31-.56,3.46a54.13,54.13,0,0,1-2,6.87l-.63,1.7c-.11.29-.2.58-.32.86l-.4.82c-.53,1.11-1.06,2.22-1.6,3.33s-1.27,2.13-1.91,3.21c-.34.52-.63,1.09-1,1.59l-1.13,1.52a59.17,59.17,0,0,1-5,5.84l-2.88,2.62-.72.66-.79.59-1.57,1.18-1.59,1.19c-.55.35-1.12.69-1.69,1l-1.7,1-.86.52c-.29.16-.6.3-.9.44l-3.63,1.76-3.81,1.4a50.75,50.75,0,0,1-32.49,0l-3.81-1.4-3.63-1.75-.9-.44-.86-.52-1.7-1-1.7-1-1.58-1.19-1.58-1.18-.78-.59-.72-.66-2.88-2.62a57.84,57.84,0,0,1-5-5.84l-1.14-1.52c-.38-.5-.67-1.06-1-1.59-.64-1.08-1.32-2.12-1.92-3.21s-1.07-2.22-1.6-3.32l-.4-.83c-.12-.28-.21-.57-.32-.86-.21-.57-.41-1.14-.62-1.7a54.18,54.18,0,0,1-2-6.87c-.24-1.15-.37-2.32-.56-3.46l-.26-1.72c-.08-.57-.07-1.15-.11-1.72-.06-1.14-.11-2.28-.17-3.4s.1-2.25.14-3.36a47.51,47.51,0,0,1,.77-6.5,27,27,0,0,1,.71-3.11c.28-1,.5-2.05.83-3s.71-1.94,1.06-2.89l.53-1.43c.21-.45.43-.9.65-1.35q.65-1.35,1.29-2.67c.41-.89,1-1.67,1.46-2.5s1-1.63,1.49-2.41l1.66-2.22a51.34,51.34,0,0,1,14.63-13,49.06,49.06,0,0,1,13.7-5.62l1.44-.36a8.83,8.83,0,0,1,1.37-.29l2.51-.37c.77-.1,1.49-.23,2.15-.3l1.79-.07,2.44-.1.83,0-.83.07L247,304l-1.79.1c-.66.07-1.37.21-2.14.33l-2.5.39a8.71,8.71,0,0,0-1.36.29l-1.43.38a48.83,48.83,0,0,0-13.6,5.67,51,51,0,0,0-14.48,13c-.55.72-1.1,1.46-1.65,2.2s-1,1.59-1.47,2.4-1,1.6-1.45,2.49l-1.27,2.64-.64,1.35c-.17.47-.34.94-.52,1.42-.34.94-.69,1.9-1,2.87s-.53,2-.8,3a24.32,24.32,0,0,0-.71,3.09,47,47,0,0,0-.75,6.45c0,1.1-.14,2.21-.13,3.32s.12,2.24.18,3.38c0,.56,0,1.14.11,1.7l.26,1.7c.19,1.14.32,2.29.56,3.43a52.67,52.67,0,0,0,2,6.8c.21.56.41,1.13.62,1.69.11.29.2.57.32.85l.39.82c.53,1.09,1.06,2.19,1.6,3.29s1.26,2.11,1.89,3.18c.34.52.62,1.08,1,1.57l1.13,1.5a58.08,58.08,0,0,0,4.91,5.79l2.86,2.59.72.65.77.59,1.56,1.16,1.57,1.18,1.68,1,1.69,1,.84.52.89.43,3.6,1.74,3.77,1.38A54.17,54.17,0,0,0,250.3,406a54.75,54.75,0,0,0,16.08-2.64l3.77-1.39,3.6-1.73c.29-.15.6-.28.89-.44l.84-.51,1.69-1c.56-.34,1.13-.67,1.68-1l1.57-1.17,1.56-1.17c.26-.19.52-.38.77-.58l.72-.66,2.85-2.59a56.77,56.77,0,0,0,4.92-5.78l1.12-1.5c.38-.5.67-1.05,1-1.58.63-1.06,1.31-2.09,1.9-3.17l1.59-3.29.39-.82c.12-.28.22-.57.32-.85.21-.56.42-1.13.62-1.69a52.21,52.21,0,0,0,2-6.8c.24-1.14.37-2.29.56-3.43l.27-1.7c.07-.56.07-1.13.11-1.7.05-1.13.11-2.26.17-3.38s-.09-2.22-.13-3.32a47,47,0,0,0-.75-6.45,26.61,26.61,0,0,0-.7-3.09c-.28-1-.48-2-.81-3s-.7-1.92-1-2.87l-.51-1.42c-.22-.45-.43-.9-.65-1.34-.42-.89-.85-1.78-1.27-2.65s-1-1.66-1.44-2.49-1-1.62-1.47-2.4l-1.65-2.2a51,51,0,0,0-14.49-13,48.58,48.58,0,0,0-13.6-5.68l-1.43-.38a8.48,8.48,0,0,0-1.36-.29l-2.49-.39c-.78-.12-1.49-.26-2.15-.33l-1.79-.1-2.43-.15Z" style="fill:#263238"></path><path d="M250.29,412.29s.32,0,.93-.05,1.53,0,2.72-.13a58.38,58.38,0,0,0,10.31-1.65,57.47,57.47,0,0,0,31.42-20.88,57,57,0,0,0,10.66-24,57,57,0,1,0-112.07,0,55.26,55.26,0,0,0,4.14,13.12,55.88,55.88,0,0,0,6.52,10.9,57.46,57.46,0,0,0,31.41,20.87,58.46,58.46,0,0,0,10.32,1.65c1.19.11,2.1.09,2.71.13s.93.05.93.05-1.26,0-3.65-.08a55.45,55.45,0,0,1-10.36-1.56,57,57,0,0,1-15.31-6.3,58.09,58.09,0,0,1-16.35-14.54A56.18,56.18,0,0,1,198,378.86a55.47,55.47,0,0,1-4.21-13.21,57.46,57.46,0,1,1,112.92,0A57.22,57.22,0,0,1,296,389.81a58,58,0,0,1-16.35,14.54,57.36,57.36,0,0,1-15.31,6.3,55.33,55.33,0,0,1-10.36,1.56C251.55,412.33,250.29,412.29,250.29,412.29Z" style="fill:#263238"></path><path d="M225.79,319.4h7.28c2.46,0,4.31.66,5.53,2a8.21,8.21,0,0,1,1.85,5.8v3.1a8.21,8.21,0,0,1-1.85,5.8c-1.22,1.32-3.07,2-5.53,2h-2.33v12.81h-5Zm7.28,14.16a2.35,2.35,0,0,0,1.83-.67,3.47,3.47,0,0,0,.6-2.3v-3.73a3.44,3.44,0,0,0-.6-2.29,2.35,2.35,0,0,0-1.83-.68h-2.33v9.67Z" style="fill:#fff"></path><path d="M244.72,349.25a8.24,8.24,0,0,1-1.94-5.85V326.86a8.22,8.22,0,0,1,1.94-5.84,8.54,8.54,0,0,1,11.15,0,8.26,8.26,0,0,1,1.93,5.84V343.4a8.29,8.29,0,0,1-1.93,5.85,8.54,8.54,0,0,1-11.15,0Zm8.13-5.53V326.55c0-2.07-.85-3.1-2.56-3.1s-2.56,1-2.56,3.1v17.17c0,2.07.85,3.1,2.56,3.1S252.85,345.79,252.85,343.72Z" style="fill:#fff"></path><path d="M261.13,319.4h7.28a7.2,7.2,0,0,1,5.53,2,8.21,8.21,0,0,1,1.84,5.8v3.1a8.21,8.21,0,0,1-1.84,5.8,7.2,7.2,0,0,1-5.53,2h-2.34v12.81h-4.94Zm7.28,14.16a2.33,2.33,0,0,0,1.82-.67,3.46,3.46,0,0,0,.61-2.3v-3.73a3.43,3.43,0,0,0-.61-2.29,2.33,2.33,0,0,0-1.82-.68h-2.34v9.67Z" style="fill:#fff"></path><path d="M218.48,383.58a7.83,7.83,0,0,1-1.81-5.52V361.71a7.83,7.83,0,0,1,1.81-5.52,8,8,0,0,1,10.47,0,7.87,7.87,0,0,1,1.8,5.52v3.22h-4.52v-3.52c0-1.89-.79-2.83-2.39-2.83s-2.39.94-2.39,2.83v17c0,1.86.8,2.78,2.39,2.78s2.39-.92,2.39-2.78v-4.65h4.52v4.31a7.87,7.87,0,0,1-1.8,5.52,8,8,0,0,1-10.47,0Z" style="fill:#fff"></path><path d="M235.23,383.53a7.93,7.93,0,0,1-1.87-5.65v-16a7.93,7.93,0,0,1,1.87-5.65,8.26,8.26,0,0,1,10.78,0,7.93,7.93,0,0,1,1.87,5.65v16a7.93,7.93,0,0,1-1.87,5.65,8.26,8.26,0,0,1-10.78,0Zm7.87-5.34V361.58c0-2-.83-3-2.48-3s-2.48,1-2.48,3v16.61c0,2,.83,3,2.48,3S243.1,380.19,243.1,378.19Z" style="fill:#fff"></path><path d="M251.1,354.67h7.08q3.69,0,5.39,1.72t1.7,5.28v1.87c0,3.16-1,5.16-3.13,6v.08a3.76,3.76,0,0,1,2.45,2.13,10.74,10.74,0,0,1,.72,4.31v5.34a19.83,19.83,0,0,0,.09,2.11,5.09,5.09,0,0,0,.43,1.59H261a7.64,7.64,0,0,1-.35-1.39c-.05-.44-.08-1.22-.08-2.35V375.8a4.72,4.72,0,0,0-.68-2.92,2.84,2.84,0,0,0-2.32-.82h-1.65v13H251.1Zm6.51,13a2.86,2.86,0,0,0,2.16-.74,3.53,3.53,0,0,0,.71-2.48v-2.34a3.87,3.87,0,0,0-.58-2.39,2.2,2.2,0,0,0-1.85-.74h-2.17v8.69Z" style="fill:#fff"></path><path d="M268.61,354.67h6l4.65,18.21h.09V354.67h4.26V385.1H278.7L273,362.89h-.09V385.1h-4.26Z" style="fill:#fff"></path><path d="M148.54,240.43l204.36-.23h.26l0,.26C345.72,299.7,337,369.69,327.62,444.37q-2.08,16.74-4.14,33.09l0,.22h-.23l-136.51,0h-.2l0-.2c-22.4-140-37.59-235-37.93-237,.34,2.07,15.72,97,38.4,237l-.23-.2,136.51,0-.26.22c1.37-10.88,2.75-21.93,4.15-33.08,9.36-74.69,18.14-144.67,25.57-203.91l.22.25Z" style="fill:#263238"></path><path d="M355.19,247.72H145.26a5.56,5.56,0,0,1-5.55-5.55h0a5.55,5.55,0,0,1,5.55-5.54H355.19a5.54,5.54,0,0,1,5.54,5.54h0A5.55,5.55,0,0,1,355.19,247.72Z" style="fill:#ebebeb"></path><path d="M355.19,247.72s.4,0,1.16-.15a5.68,5.68,0,0,0,2.9-1.71,5.47,5.47,0,0,0-.75-8,5.61,5.61,0,0,0-3.77-1.11l-48.72.08-160.74.08a5.29,5.29,0,1,0,.06,10.57h28.33l42.68,0,72.26.05,48.72.08,13.25,0,3.44,0,1.18,0-1.18,0-3.44,0-13.25,0-48.72.08-72.26.06h-71a5.81,5.81,0,1,1-.06-11.61l160.74.07,48.72.09a5.74,5.74,0,0,1,3.87,1.17,5.64,5.64,0,0,1,2,3,5.61,5.61,0,0,1-4.24,7,5.05,5.05,0,0,1-.88.09Z" style="fill:#263238"></path></g><g id="freepik--popcorns-1--inject-251"><path d="M426,168a12.73,12.73,0,0,0-14.16-1.61,20.81,20.81,0,0,0-7.3-6.32,10.75,10.75,0,0,0-9.39-.17c-2.88,1.5-4.77,5-3.88,8.11a4.57,4.57,0,0,0,.34,8.15c-3.88-1.58-6.77.48-8.79,2.89a8.37,8.37,0,0,0-.89,8.88,10.64,10.64,0,0,0,7.29,5.47,14.61,14.61,0,0,0,9.19-1.21c3.11-1.44,5.89-3.94,6.89-7.22a14.38,14.38,0,0,0,13.19,5.93,13.79,13.79,0,0,0,11.19-9A13.24,13.24,0,0,0,426,168Z" style="fill:#fafafa"></path><path d="M426,168s.07,0,.17.13l.48.43a11.56,11.56,0,0,1,1.59,1.93,13.46,13.46,0,0,1,2.12,9,12.55,12.55,0,0,1-2.51,6.14,14.16,14.16,0,0,1-6.19,4.67,13.38,13.38,0,0,1-8.71.33,14.77,14.77,0,0,1-7.85-5.52l.43-.07a11.35,11.35,0,0,1-4,5.53,16.18,16.18,0,0,1-6.45,3,13.34,13.34,0,0,1-7.37-.35,10.74,10.74,0,0,1-5.83-4.82,8.63,8.63,0,0,1,.93-9.77,9.8,9.8,0,0,1,4-2.94,6.75,6.75,0,0,1,4.85.22l-.2.46a4.82,4.82,0,0,1-.35-8.59l-.11.28a6.7,6.7,0,0,1,.34-4.36,8.15,8.15,0,0,1,2.57-3.32,9.65,9.65,0,0,1,7.54-1.51,14,14,0,0,1,6.27,3,25.36,25.36,0,0,1,4.2,4.41l-.2-.05a12.39,12.39,0,0,1,6.25-1.42,13.13,13.13,0,0,1,4.65,1,12.26,12.26,0,0,1,2.57,1.48c.27.21.46.38.59.49s.19.17.18.18l-.21-.15-.61-.45a13.47,13.47,0,0,0-2.58-1.4,13.31,13.31,0,0,0-4.6-.92,12.12,12.12,0,0,0-6.09,1.45l-.12.06-.08-.1a25.52,25.52,0,0,0-4.17-4.32,13.84,13.84,0,0,0-6.13-2.88,9.24,9.24,0,0,0-7.19,1.46,7.78,7.78,0,0,0-2.42,3.14,6.28,6.28,0,0,0-.31,4.06l.06.18-.17.09a4.33,4.33,0,0,0,.33,7.71l-.2.46a6.32,6.32,0,0,0-4.49-.2,9.32,9.32,0,0,0-3.81,2.8,8.11,8.11,0,0,0-.86,9.18,10.22,10.22,0,0,0,5.55,4.58,12.85,12.85,0,0,0,7.08.34,15.83,15.83,0,0,0,6.25-2.91,10.87,10.87,0,0,0,3.84-5.28l.14-.47.28.4a14.35,14.35,0,0,0,7.58,5.37,13,13,0,0,0,8.45-.28,13.91,13.91,0,0,0,6.05-4.5,12.43,12.43,0,0,0,2.5-6,13.34,13.34,0,0,0-.37-5.27,13.54,13.54,0,0,0-1.59-3.62A14.59,14.59,0,0,0,426,168Z" style="fill:#263238"></path><path d="M393,182.2c-.89-.91-1.86-1.32-1.86-2.6-1.61-.31-3.14.78-4.35,1.9a9.8,9.8,0,0,0-2.23,2.78,4.22,4.22,0,0,0-.21,3.47c.23.54.77,1.07,1.33.89.31-.09.56-.39.88-.38.49,0,.67.63.92,1.05a1.59,1.59,0,0,0,2.83-1.42c.88.78,2.29.29,3.16-.49a3.18,3.18,0,0,0,1.16-1.89C394.78,184.25,393.86,183.12,393,182.2Z" style="fill:#FF3365"></path><path d="M410.57,166.13s.13.23.22.68a6.59,6.59,0,0,1,0,1.94,16.78,16.78,0,0,1-2.25,5.93,19.53,19.53,0,0,0-2.36,5.73,15.46,15.46,0,0,0-.11,2.57s-.13-.23-.21-.68a6.59,6.59,0,0,1,0-1.94,17,17,0,0,1,2.26-5.93,18.93,18.93,0,0,0,2.35-5.73A16,16,0,0,0,410.57,166.13Z" style="fill:#263238"></path><path d="M405.46,168.12c-.2-.86.49-2.39.5-2.65,0-.65-1.22-.45-1.77-.1s-.94.91-1.48,1.28c-1.44,1-3.52.45-5,1.34a6.06,6.06,0,0,0-2.14,3c-.19.45-.37,1,0,1.38s.37-.09.68-.21.73-.42,1-.56c2.08-1,4.13-.9,6.64.5a3.22,3.22,0,0,1,3.14-2A4.08,4.08,0,0,1,405.46,168.12Z" style="fill:#FF3365"></path><path d="M407,175.65a11.41,11.41,0,0,0-1.85-2.33,7.76,7.76,0,0,0-2.74-1.61,6.83,6.83,0,0,0-7.2,1.55,7.77,7.77,0,0,0-1.84,2.59,11.78,11.78,0,0,0-.72,2.89,2.17,2.17,0,0,1-.08-.82,6.77,6.77,0,0,1,.46-2.21,8,8,0,0,1,1.85-2.8,7.18,7.18,0,0,1,7.7-1.66,8.07,8.07,0,0,1,2.83,1.8,6.52,6.52,0,0,1,1.32,1.82A1.93,1.93,0,0,1,407,175.65Z" style="fill:#263238"></path><path d="M407.53,164.16c0,.08-.37.28-.81.81a4.47,4.47,0,0,0-1,2.43,2.46,2.46,0,0,0,1,2.24c.54.44.93.7.88.76s-.46-.07-1.1-.47a3.11,3.11,0,0,1-1-.93,2.52,2.52,0,0,1-.37-1.64,4.21,4.21,0,0,1,1.24-2.65C407,164.19,407.52,164.11,407.53,164.16Z" style="fill:#263238"></path><path d="M390.36,188.09a4.41,4.41,0,0,0,2-.19,2.8,2.8,0,0,0,1.53-1.44,2.9,2.9,0,0,0,0-2.52,9.57,9.57,0,0,0-1.75-2.13,4.75,4.75,0,0,1-1.24-2.06,2.33,2.33,0,0,1,.16-1.62c.19-.35.39-.46.41-.44s-.11.19-.22.52a2.35,2.35,0,0,0,0,1.45,4.84,4.84,0,0,0,1.24,1.82,9.37,9.37,0,0,1,1.87,2.22,3.33,3.33,0,0,1,0,3,3.09,3.09,0,0,1-1.84,1.58A2.36,2.36,0,0,1,390.36,188.09Z" style="fill:#263238"></path><g style="opacity:0.30000000000000004"><path d="M410.73,167.4a14.75,14.75,0,0,1-1.7,5.49,37.88,37.88,0,0,0-2.51,5.22,8,8,0,0,0-.41,4.87,10.44,10.44,0,0,1,.44-3.43,9.9,9.9,0,0,1,1.6-2.54c1.69-2.23,2.07-2.73,2.74-4.55C411.42,171,411.15,169.6,410.73,167.4Z"></path></g><path d="M102.35,255.31a12.77,12.77,0,0,0-14.17-1.6,20.87,20.87,0,0,0-7.29-6.32,10.81,10.81,0,0,0-9.4-.18c-2.88,1.5-4.77,5-3.88,8.12a4.57,4.57,0,0,0,.34,8.14c-3.87-1.58-6.77.48-8.79,2.89a8.4,8.4,0,0,0-.89,8.88,10.62,10.62,0,0,0,7.29,5.48,14.68,14.68,0,0,0,9.19-1.21c3.11-1.45,5.89-3.95,6.89-7.23a14.38,14.38,0,0,0,13.19,5.93,13.77,13.77,0,0,0,11.19-9A13.26,13.26,0,0,0,102.35,255.31Z" style="fill:#fafafa"></path><path d="M102.35,255.31l.17.14.48.43a11.88,11.88,0,0,1,1.58,1.92,13,13,0,0,1,1.68,3.64,13.35,13.35,0,0,1,.44,5.37,12.59,12.59,0,0,1-2.51,6.14A14.34,14.34,0,0,1,98,277.62a13.55,13.55,0,0,1-8.72.33,14.74,14.74,0,0,1-7.85-5.53l.43-.07a11.37,11.37,0,0,1-4,5.54,16.3,16.3,0,0,1-6.45,3,13.22,13.22,0,0,1-7.36-.35,10.7,10.7,0,0,1-5.83-4.81,8.63,8.63,0,0,1,.92-9.77,9.63,9.63,0,0,1,4-2.94,6.8,6.8,0,0,1,4.85.21l-.2.46a4.82,4.82,0,0,1-.35-8.58l-.11.27a6.7,6.7,0,0,1,.34-4.36,8.24,8.24,0,0,1,2.58-3.32,9.67,9.67,0,0,1,7.53-1.51,14.11,14.11,0,0,1,6.27,3,25.71,25.71,0,0,1,4.2,4.41l-.2,0a12.39,12.39,0,0,1,6.25-1.42,13,13,0,0,1,4.65,1,12.86,12.86,0,0,1,2.58,1.48l.58.49.19.18s-.08,0-.22-.14l-.6-.46a13.69,13.69,0,0,0-2.59-1.39,13.24,13.24,0,0,0-4.6-.93,12.24,12.24,0,0,0-6.09,1.46l-.11.06-.09-.11a25.86,25.86,0,0,0-4.17-4.31,13.81,13.81,0,0,0-6.12-2.89,9.23,9.23,0,0,0-7.19,1.47,7.8,7.8,0,0,0-2.43,3.14,6.32,6.32,0,0,0-.3,4l0,.18-.17.1a4.33,4.33,0,0,0,.33,7.71l-.2.46a6.21,6.21,0,0,0-4.49-.2,9.27,9.27,0,0,0-3.81,2.79,8.14,8.14,0,0,0-.86,9.19,10.27,10.27,0,0,0,5.55,4.58,12.94,12.94,0,0,0,7.08.34,15.94,15.94,0,0,0,6.26-2.91,11,11,0,0,0,3.83-5.29l.15-.46.28.39a14.25,14.25,0,0,0,7.57,5.38,13.07,13.07,0,0,0,8.45-.28,13.9,13.9,0,0,0,6.06-4.51,12.27,12.27,0,0,0,2.49-6,13.45,13.45,0,0,0-2-8.88A15.37,15.37,0,0,0,102.35,255.31Z" style="fill:#263238"></path><path d="M69.34,269.54c-.89-.91-1.87-1.33-1.86-2.6-1.62-.32-3.15.77-4.35,1.89a9.67,9.67,0,0,0-2.23,2.79,4.26,4.26,0,0,0-.22,3.47c.24.54.78,1.06,1.34.89.31-.1.55-.39.87-.39.49,0,.67.63.92,1.05a1.59,1.59,0,0,0,2.83-1.41c.88.77,2.29.29,3.17-.49A3.32,3.32,0,0,0,71,272.85C71.15,271.58,70.23,270.45,69.34,269.54Z" style="fill:#FF3365"></path><path d="M86.94,253.47s.12.22.21.67a6.6,6.6,0,0,1,0,1.95A16.9,16.9,0,0,1,84.94,262a19.47,19.47,0,0,0-2.35,5.73,16.31,16.31,0,0,0-.12,2.57,1.76,1.76,0,0,1-.21-.68,6.66,6.66,0,0,1,0-1.95,17.1,17.1,0,0,1,2.27-5.92A19.18,19.18,0,0,0,86.83,256,16.82,16.82,0,0,0,86.94,253.47Z" style="fill:#263238"></path><path d="M81.82,255.46c-.2-.86.5-2.39.5-2.66,0-.65-1.22-.45-1.77-.09s-.94.9-1.48,1.27c-1.44,1-3.52.46-5,1.35a5.94,5.94,0,0,0-2.13,3c-.2.45-.37,1,0,1.37s.37-.08.69-.21.73-.41,1-.56c2.09-1,4.13-.89,6.65.51a3.19,3.19,0,0,1,3.13-2A4.14,4.14,0,0,1,81.82,255.46Z" style="fill:#FF3365"></path><path d="M83.39,263a12.6,12.6,0,0,0-1.85-2.33A8.27,8.27,0,0,0,78.8,259a6.89,6.89,0,0,0-7.21,1.55,8,8,0,0,0-1.83,2.6,12.14,12.14,0,0,0-.73,2.88,2.08,2.08,0,0,1-.07-.82,6.46,6.46,0,0,1,.46-2.2,7.77,7.77,0,0,1,1.84-2.8,7.13,7.13,0,0,1,7.7-1.66,7.74,7.74,0,0,1,2.83,1.79,6.81,6.81,0,0,1,1.33,1.82A2.51,2.51,0,0,1,83.39,263Z" style="fill:#263238"></path><path d="M83.89,251.5c0,.07-.37.28-.81.8a4.58,4.58,0,0,0-1,2.44,2.45,2.45,0,0,0,1,2.23c.55.45.93.7.89.77s-.47-.08-1.1-.47a3.14,3.14,0,0,1-1-.93,2.54,2.54,0,0,1-.37-1.64,4.17,4.17,0,0,1,1.25-2.65C83.39,251.53,83.88,251.44,83.89,251.5Z" style="fill:#263238"></path><path d="M66.72,275.43a4.59,4.59,0,0,0,2-.19,2.8,2.8,0,0,0,1.53-1.44,2.92,2.92,0,0,0,0-2.53,10.06,10.06,0,0,0-1.74-2.13,4.6,4.6,0,0,1-1.25-2.05,2.33,2.33,0,0,1,.17-1.62c.19-.35.39-.46.4-.44s-.1.18-.22.52a2.41,2.41,0,0,0,0,1.44,4.62,4.62,0,0,0,1.23,1.82A9.63,9.63,0,0,1,70.73,271a3.28,3.28,0,0,1,0,3,3.1,3.1,0,0,1-1.83,1.59A2.4,2.4,0,0,1,66.72,275.43Z" style="fill:#263238"></path><g style="opacity:0.30000000000000004"><path d="M87.09,254.73a14.74,14.74,0,0,1-1.7,5.5,35.69,35.69,0,0,0-2.5,5.22,8.08,8.08,0,0,0-.42,4.87,10.54,10.54,0,0,1,.45-3.44,9.93,9.93,0,0,1,1.59-2.54c1.7-2.23,2.08-2.72,2.75-4.54C87.79,258.36,87.51,256.93,87.09,254.73Z"></path></g><path d="M306.14,35.83A6.58,6.58,0,0,0,295.09,37c-.54,1.09-.83,2.41-1.82,3.13a6.28,6.28,0,0,1-2.22.8,7,7,0,0,0-5.14,4.72c-.59,2.38,1,5.24,3.42,5.49a7.51,7.51,0,0,0,.72,6.72,8.4,8.4,0,0,0,5.82,3.44,10.74,10.74,0,0,0,13.21,2.79,11.24,11.24,0,0,0,5.24-12.81A6.91,6.91,0,0,0,317.5,38a5.79,5.79,0,0,0-11.36-2.15Z" style="fill:#fff"></path><path d="M306.14,35.83a4.18,4.18,0,0,1,.38-1.14,6.27,6.27,0,0,1,4.77-3.3,5.33,5.33,0,0,1,2.95.51,6.25,6.25,0,0,1,2.56,2.33,6,6,0,0,1,.89,3.77l-.11-.2a7.13,7.13,0,0,1-3.28,13.69l.25-.32A11.42,11.42,0,0,1,313,60.75a10.81,10.81,0,0,1-3.86,3.55,10.54,10.54,0,0,1-5.25,1.2,11.59,11.59,0,0,1-4.61-1.17,11.44,11.44,0,0,1-3.63-2.9l.16.09a10.51,10.51,0,0,1-3.5-1.23,7.34,7.34,0,0,1-2.61-2.52,7.75,7.75,0,0,1-.61-6.74l.19.32a4.12,4.12,0,0,1-3.06-2.16,5,5,0,0,1-.56-3.55,6,6,0,0,1,1.74-3A8.28,8.28,0,0,1,290.16,41a22.18,22.18,0,0,0,2.81-.9,4.14,4.14,0,0,0,1.51-2.14,8,8,0,0,1,1.27-2.27,6.77,6.77,0,0,1,1.83-1.54,6.42,6.42,0,0,1,3.9-.89,6.83,6.83,0,0,1,2.83.92,6.54,6.54,0,0,1,1.44,1.17,5.11,5.11,0,0,1,.39.5,8.06,8.06,0,0,0-1.91-1.54,6.87,6.87,0,0,0-2.77-.83,6.32,6.32,0,0,0-3.74.91,6.81,6.81,0,0,0-2.92,3.71,4.52,4.52,0,0,1-1.64,2.32,24.49,24.49,0,0,1-2.85,1,6.56,6.56,0,0,0-4.2,4.38,4.58,4.58,0,0,0,.53,3.22,3.66,3.66,0,0,0,2.71,1.92l.31,0-.11.29a7.31,7.31,0,0,0,.59,6.31,8.13,8.13,0,0,0,5.77,3.5l.1,0,.06.07A10.6,10.6,0,0,0,303.93,65a10,10,0,0,0,5-1.13,10.2,10.2,0,0,0,3.67-3.38,10.87,10.87,0,0,0,1.49-9.14L314,51l.35,0a6.87,6.87,0,0,0,7.13-5.76,7,7,0,0,0-4-7.09l-.13-.06,0-.14a5.65,5.65,0,0,0-.81-3.55,6,6,0,0,0-2.4-2.24,5.4,5.4,0,0,0-5.11.22,6,6,0,0,0-2.38,2.36C306.26,35.43,306.15,35.87,306.14,35.83Z" style="fill:#263238"></path><path d="M313.82,51c0,.06-.47.15-1.23.06A6.51,6.51,0,0,1,309.83,50a6.35,6.35,0,0,1-2-2.2c-.36-.67-.44-1.15-.38-1.16a12.06,12.06,0,0,0,2.67,2.93A12,12,0,0,0,313.82,51Z" style="fill:#263238"></path><path d="M295,61.06a14.14,14.14,0,0,0,3.45.12,10.69,10.69,0,0,0,3.53-1.1,9.27,9.27,0,0,0,3.41-2.91c.48-.6.71-1.48,1.56-2s1.69,0,2.33,0a4.65,4.65,0,0,0,3.23-1.43,5.31,5.31,0,0,0,1.28-2.11c.18-.57.19-.91.24-.9a1.89,1.89,0,0,1,0,1A5.05,5.05,0,0,1,312.78,54a4.94,4.94,0,0,1-3.49,1.66c-.77,0-1.53-.27-2.11,0s-.85,1.1-1.36,1.79a9.51,9.51,0,0,1-3.62,3,10.11,10.11,0,0,1-3.72,1,8,8,0,0,1-2.58-.17A2.74,2.74,0,0,1,295,61.06Z" style="fill:#263238"></path><path d="M299.91,46.84c-.35.35-.61.79-.94,1.15-1.35,1.5-3.76,1.74-5,3.32a3.88,3.88,0,0,0,.52,5.1,4.69,4.69,0,0,0,5.27.52,5.92,5.92,0,0,0,2.91-4.58c.19-1.87.35-3.45-.71-5a.86.86,0,0,0-.73-1.07A1.6,1.6,0,0,0,299.91,46.84Z" style="fill:#FF3365"></path><path d="M292.62,42.45a4.46,4.46,0,0,0-2.55,2.38,1.7,1.7,0,0,0,.11,1.73,1.5,1.5,0,0,0,1.32.39,5,5,0,0,0,1.35-.46,14.89,14.89,0,0,1,7.77-1.06l.38-.76c-.84-1.73-2.93-2.48-4.85-2.63A8.12,8.12,0,0,0,292.62,42.45Z" style="fill:#FF3365"></path><path d="M310.13,34.36a5.19,5.19,0,0,0-.92,3.35,10.66,10.66,0,0,1-.34,3.52c-.28.78-1,1.56-1.82,1.39a3.93,3.93,0,0,1-1.13-.63,2.49,2.49,0,0,0-2.66.15c-.76.56-.46,2-.25,3h0a2.6,2.6,0,0,0,1.55,2,2.64,2.64,0,0,0,3.32-1.59.88.88,0,0,0,1.25.43,2.27,2.27,0,0,0,.92-1.16,3.58,3.58,0,0,1,.79-1.28c.85-.71,2.11-.3,3.18,0a4.46,4.46,0,0,0,2.93,0,2,2,0,0,0,1.2-2.42c-.6-1.54-3.11-1.28-4-2.65s.12-3.23-.88-4.37A2.16,2.16,0,0,0,310.13,34.36Z" style="fill:#FF3365"></path><path d="M306.06,35.76c.14.06-.3,1.33-.44,3s0,2.95-.11,3a5.05,5.05,0,0,1-.41-3A5.1,5.1,0,0,1,306.06,35.76Z" style="fill:#263238"></path><path d="M301,45.49a26.9,26.9,0,0,0-5.43.43,41.21,41.21,0,0,0-5.14,1.84,11,11,0,0,1,5-2.35A9.77,9.77,0,0,1,301,45.49Z" style="fill:#263238"></path><g style="opacity:0.30000000000000004"><path d="M314,50.73a5,5,0,0,1-5.14,4.67,3.42,3.42,0,0,0-1.77,0,3.16,3.16,0,0,0-1.19,1.42A10,10,0,0,1,295,61.06a9.14,9.14,0,0,0,5.48.84c4.83-.48,6-5.23,7.57-5.49s3.53-.21,4.91-1.22S314,50.73,314,50.73Z"></path></g><g style="opacity:0.30000000000000004"><path d="M295.26,44.06a7,7,0,0,0-4.77,2.73c-.1.13-.19.32-.08.45s.33.07.49,0a16.44,16.44,0,0,1,9.84-1.78l-.08-.12A8.51,8.51,0,0,0,295.26,44.06Z"></path></g><path d="M163.43,120.25a9.48,9.48,0,0,0-6.45-1,8.19,8.19,0,0,0-5.13,3.22,4,4,0,0,0,2,4,6.5,6.5,0,0,0,4.69.53,17.54,17.54,0,0,0,4.44-1.88c1-.55,2.14-1.3,2.2-2.44A3,3,0,0,0,163.43,120.25Z" style="fill:#FF3365"></path><g style="opacity:0.30000000000000004"><path d="M153.11,125l.09.7a1.6,1.6,0,0,0,1.18,1,4.3,4.3,0,0,0,1.6,0,18.58,18.58,0,0,0,5.15-1.26,8.86,8.86,0,0,0,4.09-3.36A14.41,14.41,0,0,0,153.11,125Z"></path></g><path d="M170.29,123.56c-4.63-2.61-10.47-.78-15.14,1.75l-.92.57a10.7,10.7,0,0,1-2.89-4.36c-.43-1.71.25-3.84,1.93-4.4,1.42-.48,3.14.27,4.41-.54a2.64,2.64,0,0,0,.74-3.32,5.13,5.13,0,0,0-2.78-2.35A10.26,10.26,0,0,0,142.82,116a6,6,0,0,0-5.92,10.25,8.81,8.81,0,0,0-.55,9.32,9.25,9.25,0,0,0,16.52,5.07,16,16,0,0,0,12.56,2.86,12.51,12.51,0,0,0,9.35-8.5A10.29,10.29,0,0,0,170.29,123.56Z" style="fill:#fff"></path><path d="M170.29,123.56s.06,0,.17.08l.48.28a8.54,8.54,0,0,1,1.63,1.4,10.53,10.53,0,0,1,.84,13,12.87,12.87,0,0,1-5.16,4.42c-4.42,2.22-10.66,1.6-15.52-1.9l.32-.05a9.49,9.49,0,0,1-17-5.19l0,.11a9.11,9.11,0,0,1,.53-9.55l0-.05.05.35a6.22,6.22,0,0,1,6.17-10.68l-.33.13a10.25,10.25,0,0,1,1.57-2.4,10.93,10.93,0,0,1,2.15-1.82,11.11,11.11,0,0,1,5.14-1.69,9.42,9.42,0,0,1,5.09,1.06,5.15,5.15,0,0,1,1.9,1.72,3.17,3.17,0,0,1,.39,2.49,2.38,2.38,0,0,1-1.69,1.77,7.69,7.69,0,0,1-2.33.09,3.47,3.47,0,0,0-2,.42,3,3,0,0,0-1.16,1.58,4.5,4.5,0,0,0,.47,3.73,15.5,15.5,0,0,0,2.25,2.89l-.21,0c4.61-2.79,9-3.78,11.89-3.5a10.23,10.23,0,0,1,3.24.78,8.4,8.4,0,0,1,1,.54,11.23,11.23,0,0,0-4.28-1.14c-2.87-.22-7.17.81-11.69,3.6l-.12.08-.09-.1a15.4,15.4,0,0,1-2.33-2.94,5.83,5.83,0,0,1-.7-1.91,4.38,4.38,0,0,1,.18-2.12,3.39,3.39,0,0,1,1.31-1.8,3.77,3.77,0,0,1,2.24-.49,7.65,7.65,0,0,0,2.2-.1,2,2,0,0,0,1.39-1.46A2.71,2.71,0,0,0,158,113a4.54,4.54,0,0,0-1.74-1.56,9,9,0,0,0-4.83-1,10,10,0,0,0-8.42,5.63l-.1.23-.23-.1a5.71,5.71,0,0,0-5.66,9.81l.19.15-.14.21,0,.06a8.6,8.6,0,0,0-.5,9l0,.05v.06a9,9,0,0,0,16.08,4.94l.14-.17.18.13c4.73,3.43,10.8,4.06,15.09,1.93a12.68,12.68,0,0,0,5-4.26,10.33,10.33,0,0,0,1.84-5.3,10.53,10.53,0,0,0-2.52-7.43A10.9,10.9,0,0,0,170.29,123.56Z" style="fill:#263238"></path><path d="M153.57,126.3c-.07.06-.71-.8-2.09-1.77a10.62,10.62,0,0,0-12.25-.15c-1.39.94-2,1.79-2.13,1.72a2.14,2.14,0,0,1,.42-.62,8.81,8.81,0,0,1,1.5-1.4,10.37,10.37,0,0,1,12.68.15,8.63,8.63,0,0,1,1.46,1.43A2,2,0,0,1,153.57,126.3Z" style="fill:#263238"></path><path d="M146.21,122.25c0,.06-.46,0-1.08-.44a5.64,5.64,0,0,1-2.47-4.86c0-.73.22-1.14.28-1.13a9.42,9.42,0,0,0,.79,3.65A9.73,9.73,0,0,0,146.21,122.25Z" style="fill:#263238"></path><g style="opacity:0.30000000000000004"><path d="M153.28,139.64a14.86,14.86,0,0,1,.7-12.43s-3,3.58-2.64,7.1A9.7,9.7,0,0,0,153.28,139.64Z"></path></g><path d="M153.28,139.64a4.91,4.91,0,0,1-.75-1.74,13.67,13.67,0,0,1,.5-9,4.86,4.86,0,0,1,.95-1.65,23.38,23.38,0,0,0-1.45,6.16A24.1,24.1,0,0,0,153.28,139.64Z" style="fill:#263238"></path><path d="M143.3,135.84a4.87,4.87,0,0,1-3.58,1,4.79,4.79,0,0,1-3.45-1.38,14.61,14.61,0,0,0,3.48.86A15.88,15.88,0,0,0,143.3,135.84Z" style="fill:#263238"></path><path d="M234.05,109.68a21,21,0,0,0-15.18,11.14c-1.4,2.79-2.15,6.08-1.19,9.05a17.15,17.15,0,0,0,3.93,5.9c2.92,3.28,6.35,6.8,10.73,6.9a10.2,10.2,0,0,0,6.18-2.16,20.55,20.55,0,0,0,4.49-4.9,13.54,13.54,0,0,0,13,2.2c3.09-1.14,5.93-4,5.61-7.26a7.05,7.05,0,0,0-2.83-4.68,20.26,20.26,0,0,0-5-2.61,21.46,21.46,0,0,0,8.06-4.06c2.25-2,3.71-5.2,3-8.14-.38-1.53-1.31-2.87-1.68-4.4-.27-1.12-.24-2.3-.58-3.4A7,7,0,0,0,257.93,99a21,21,0,0,0-6.52-.68,10.6,10.6,0,1,0-17.54,11.12" style="fill:#fff"></path><path d="M233.87,109.43s-.17-.16-.47-.49a9.38,9.38,0,0,1-1.15-1.62A11.08,11.08,0,0,1,231,100a10.23,10.23,0,0,1,2.37-4.88,11.2,11.2,0,0,1,5.43-3.41,10.25,10.25,0,0,1,7.25.67,11,11,0,0,1,5.56,5.91l-.2-.14a30.91,30.91,0,0,1,4.37.18,10.35,10.35,0,0,1,4.35,1.51,6.35,6.35,0,0,1,2.84,3.85c.18.81.22,1.63.35,2.41a8.71,8.71,0,0,0,.75,2.28,21.38,21.38,0,0,1,1,2.35,7.17,7.17,0,0,1,.26,2.61,9.21,9.21,0,0,1-2.05,4.85,13.1,13.1,0,0,1-4.22,3.34,30.35,30.35,0,0,1-5.09,2l0-.49a23.41,23.41,0,0,1,4.5,2.26,8.16,8.16,0,0,1,3.23,4.13,5.49,5.49,0,0,1,0,3.33,7.22,7.22,0,0,1-1.7,2.81,10.71,10.71,0,0,1-5.58,3,13.89,13.89,0,0,1-11.52-2.74l.36-.05a20.8,20.8,0,0,1-4.54,4.94,10.46,10.46,0,0,1-6.07,2.2,10.19,10.19,0,0,1-5.84-2,25.76,25.76,0,0,1-4.35-3.94,39.75,39.75,0,0,1-3.53-4.25,9.75,9.75,0,0,1-1.78-4.86,12.27,12.27,0,0,1,.65-4.77,17.51,17.51,0,0,1,1.91-4,21.2,21.2,0,0,1,9.87-8.24,20.26,20.26,0,0,1,3.33-1l.89-.15.3,0a1.1,1.1,0,0,1-.3.08l-.87.19A22.3,22.3,0,0,0,229.6,111a21.26,21.26,0,0,0-4.75,2.8,20.79,20.79,0,0,0-4.93,5.45,17.83,17.83,0,0,0-1.84,3.91,12,12,0,0,0-.61,4.63,9.49,9.49,0,0,0,1.74,4.67,39.41,39.41,0,0,0,3.52,4.18,25.54,25.54,0,0,0,4.28,3.86,9.8,9.8,0,0,0,5.58,1.89,10,10,0,0,0,5.79-2.12,20.51,20.51,0,0,0,4.42-4.84l.16-.22.21.17a13.38,13.38,0,0,0,11.09,2.63,10.2,10.2,0,0,0,5.31-2.86,5.71,5.71,0,0,0,1.61-5.63,7.58,7.58,0,0,0-3-3.85,22.66,22.66,0,0,0-4.4-2.21l-.66-.27.68-.21a30.94,30.94,0,0,0,5-2,12.72,12.72,0,0,0,4.07-3.21,8.84,8.84,0,0,0,1.95-4.58,6.79,6.79,0,0,0-.24-2.42,18.7,18.7,0,0,0-.94-2.29,9.48,9.48,0,0,1-.77-2.4c-.14-.82-.17-1.63-.35-2.39a5.86,5.86,0,0,0-2.62-3.57,9.87,9.87,0,0,0-4.16-1.45,31.36,31.36,0,0,0-4.31-.19h-.15l0-.13a10.67,10.67,0,0,0-5.33-5.71,9.93,9.93,0,0,0-7-.69,11,11,0,0,0-5.3,3.27,10,10,0,0,0-2.35,4.73,11.08,11.08,0,0,0,1.12,7.27A14.48,14.48,0,0,0,233.87,109.43Z" style="fill:#263238"></path><path d="M236.54,109.49a4.25,4.25,0,0,1,1,.58,17.47,17.47,0,0,1,2.45,2,20.21,20.21,0,0,1,5.2,9,19.73,19.73,0,0,1-.13,10.42,17.76,17.76,0,0,1-1.14,3,3.92,3.92,0,0,1-.6,1,42.55,42.55,0,0,0,1.38-4.06,20.57,20.57,0,0,0,0-10.18,20.91,20.91,0,0,0-5-8.9C237.91,110.44,236.48,109.57,236.54,109.49Z" style="fill:#263238"></path><path d="M238.75,97.79a8.4,8.4,0,0,0-1.17,4.45,7.71,7.71,0,0,0,.36,2.83,3.49,3.49,0,0,0,1.87,2.06l.55.31c.38-3.53,2.43-5.84,5.17-7.59a9.26,9.26,0,0,1-2.83-4A4.1,4.1,0,0,0,238.75,97.79Z" style="fill:#FF3365"></path><path d="M251.11,98.87c0,.1-1-.07-2.6.21a9.42,9.42,0,0,0-7.87,8.47c-.17,1.6.07,2.6,0,2.61a1.77,1.77,0,0,1-.22-.68,8.13,8.13,0,0,1-.13-2,9.28,9.28,0,0,1,8.18-8.8,8,8,0,0,1,2,0A1.84,1.84,0,0,1,251.11,98.87Z" style="fill:#263238"></path><path d="M247.77,122.22a20.56,20.56,0,0,1,3,.61,21,21,0,0,1,3,.53,8.57,8.57,0,0,1-6-1.14Z" style="fill:#263238"></path><path d="M263.5,107.64a39.87,39.87,0,0,0-4.63.24,43.66,43.66,0,0,0-4.47,1.24,10.9,10.9,0,0,1,9.1-1.48Z" style="fill:#263238"></path><g style="opacity:0.30000000000000004"><path d="M244.31,133.62a19.06,19.06,0,0,0,2.12-13.5,13.63,13.63,0,0,0-9-9.88C244.54,115.73,247.58,124.15,244.31,133.62Z"></path></g><g style="opacity:0.30000000000000004"><path d="M241.14,102.49a7,7,0,0,0-.81,5.05h.08c.18-3.62,2.28-6.16,5.49-7.85C244.09,99.46,242.05,100.91,241.14,102.49Z"></path></g><path d="M222.84,68.47A14.55,14.55,0,0,0,221,63a5.35,5.35,0,0,0-4.87-2.58,6.63,6.63,0,0,0-12.86.83c-3.08-3.45-7.64-6.21-12.25-5.8A13.64,13.64,0,0,0,180,62.93a12.39,12.39,0,0,0,1.56,13,11.37,11.37,0,0,0,12.56,3.24A8,8,0,0,0,198.84,84a21.4,21.4,0,0,0,6.79,1.34c2.87.21,5.93.29,8.42-1.17s3.93-5,2.22-7.32a3.52,3.52,0,0,0,4.49.65,5.67,5.67,0,0,0,2.45-4.14A15.49,15.49,0,0,0,222.84,68.47Z" style="fill:#fafafa"></path><path d="M222.84,68.47a2.29,2.29,0,0,1,.07.25c0,.19.09.43.15.74a14.9,14.9,0,0,1,.31,2.91,6.74,6.74,0,0,1-1.5,4.4,4,4,0,0,1-2.62,1.41A3.43,3.43,0,0,1,216.14,77l.26-.2a4.42,4.42,0,0,1,.67,1.42,5.23,5.23,0,0,1,.08,1.63A6.14,6.14,0,0,1,215.77,83a6.66,6.66,0,0,1-3,2.07,12.34,12.34,0,0,1-3.81.67,34.59,34.59,0,0,1-4.05-.15,26.18,26.18,0,0,1-4.21-.64A11.34,11.34,0,0,1,196.64,83a7.46,7.46,0,0,1-2.72-3.77l.33.16a11.44,11.44,0,0,1-9.33-.54,11.14,11.14,0,0,1-3.86-3.18,11.71,11.71,0,0,1-2.14-4.65,12.62,12.62,0,0,1,1.67-9.64,13.89,13.89,0,0,1,7.49-5.62,12.69,12.69,0,0,1,4.51-.59,13.16,13.16,0,0,1,4.25,1.07,19,19,0,0,1,6.55,4.84l-.37.11a6.81,6.81,0,0,1,13.21-.84l-.16-.1a4.68,4.68,0,0,1,2.6.5,6.09,6.09,0,0,1,1.83,1.45,8.85,8.85,0,0,1,1.7,3.24,17.49,17.49,0,0,1,.64,3s0-.06-.06-.19l-.14-.57c-.12-.5-.28-1.24-.59-2.18a9,9,0,0,0-1.72-3.14,5,5,0,0,0-4.23-1.8H216l0-.12A6.69,6.69,0,0,0,210.16,56,6.19,6.19,0,0,0,206,57.29a6.55,6.55,0,0,0-2.53,4l-.07.43-.3-.33a18.81,18.81,0,0,0-6.41-4.7,12.41,12.41,0,0,0-4.1-1,12,12,0,0,0-4.33.58A13.43,13.43,0,0,0,181,61.7,12.12,12.12,0,0,0,179.43,71a11.4,11.4,0,0,0,2,4.45,10.69,10.69,0,0,0,3.68,3,11,11,0,0,0,8.9.53l.26-.1.07.26a7,7,0,0,0,2.54,3.52,10.89,10.89,0,0,0,3.89,1.81,25.66,25.66,0,0,0,4.13.64,36.32,36.32,0,0,0,4,.17c2.55-.06,5.11-.76,6.54-2.55a6,6,0,0,0,1.32-2.92,3.93,3.93,0,0,0-.67-2.81l.27-.2a3.13,3.13,0,0,0,2.82,1.1,3.76,3.76,0,0,0,2.46-1.29,6.55,6.55,0,0,0,1.51-4.23,16.63,16.63,0,0,0-.22-2.9c0-.31-.08-.55-.11-.74A1,1,0,0,1,222.84,68.47Z" style="fill:#263238"></path><path d="M199.38,66a4.67,4.67,0,0,1,.77,2,10,10,0,0,1-.31,5.25,9.48,9.48,0,0,1-3,4.35A5,5,0,0,1,195,78.74c-.05-.07.67-.49,1.63-1.39a10.12,10.12,0,0,0,2.72-4.23,11,11,0,0,0,.44-5C199.62,66.79,199.29,66,199.38,66Z" style="fill:#263238"></path><path d="M216.83,60.4a6.75,6.75,0,0,1-1.39.2,8.57,8.57,0,0,0-3.08,1.11,8.68,8.68,0,0,0-2.42,2.21c-.5.68-.74,1.17-.81,1.14s.05-.57.51-1.34a7.28,7.28,0,0,1,5.76-3.49A2.81,2.81,0,0,1,216.83,60.4Z" style="fill:#263238"></path><g style="opacity:0.30000000000000004"><path d="M211.24,61.07a6.18,6.18,0,0,0-2.39,4.43,8,8,0,0,1,7.07-5.18A4.89,4.89,0,0,0,211.24,61.07Z"></path></g><g style="opacity:0.30000000000000004"><path d="M195.53,78.29A7.38,7.38,0,0,0,200,67.79a10.62,10.62,0,0,1-4.35,10.5"></path></g><path d="M342.63,110.43a12.13,12.13,0,0,0-10.27-9c-4.83-.58-9.12,2.21-12,6.14a16.1,16.1,0,0,0-17.29,1.13,6.26,6.26,0,0,0-2.17,2.54,2.9,2.9,0,0,0,.49,3.13c1.44,1.39,3.81.34,5.49-.75a12.77,12.77,0,0,0-2.22,5.44,6.15,6.15,0,0,0,1.88,5.37,4.09,4.09,0,0,0,5.39,0c-1.66,3.34-.27,7.68,2.64,10,3.77,3,9.07,2.89,13.88,2.64,2-.11,4.34-.41,5.34-2.15,2.62.27,4.77-2.41,4.94-5s-1.06-5.1-2.25-7.44A10.68,10.68,0,0,0,342.63,110.43Z" style="fill:#fff"></path><path d="M342.63,110.43a.81.81,0,0,1,.06.24c0,.17.09.41.14.73a10.46,10.46,0,0,1,0,2.85,11.15,11.15,0,0,1-1.6,4.28,10,10,0,0,1-4.65,4l.08-.22c1,1.93,2.2,4.14,2.31,6.86a6.23,6.23,0,0,1-1.23,4,4.45,4.45,0,0,1-3.93,2l.21-.1a4.43,4.43,0,0,1-3,1.94,19.32,19.32,0,0,1-3.65.38,30.72,30.72,0,0,1-7.72-.39,11,11,0,0,1-7-4.24,9.18,9.18,0,0,1-1.6-4,7.56,7.56,0,0,1,.64-4.38l.42.29a4.07,4.07,0,0,1-3.79,1,4.77,4.77,0,0,1-3.2-2.51,7.24,7.24,0,0,1-.54-5.06,14.46,14.46,0,0,1,2.08-4.52l.36.35a7.35,7.35,0,0,1-4.13,1.45,2.62,2.62,0,0,1-2-1.07,3.07,3.07,0,0,1-.48-2.17,5.47,5.47,0,0,1,2.34-3.43,15.75,15.75,0,0,1,3.48-2,16.36,16.36,0,0,1,14.2.77l-.27.06a17.4,17.4,0,0,1,4.55-4.33,11.51,11.51,0,0,1,13.81.84,11.65,11.65,0,0,1,3.5,4.58,7.83,7.83,0,0,1,.57,1.94s-.16-.69-.69-1.89a12.18,12.18,0,0,0-11.85-7A11.68,11.68,0,0,0,325,103.4a17,17,0,0,0-4.41,4.25l-.11.15-.17-.09a15.94,15.94,0,0,0-13.8-.7A15.32,15.32,0,0,0,303.1,109a5,5,0,0,0-2.16,3.11,2.63,2.63,0,0,0,.4,1.8,2.1,2.1,0,0,0,1.6.86,6.92,6.92,0,0,0,3.81-1.37l1-.63-.64,1a14.16,14.16,0,0,0-2,4.36,6.71,6.71,0,0,0,.49,4.7,4.23,4.23,0,0,0,2.85,2.24,3.51,3.51,0,0,0,3.31-.86l1.16-1.21-.74,1.51a7.93,7.93,0,0,0,.9,7.89,10.53,10.53,0,0,0,6.67,4.05,30.59,30.59,0,0,0,7.6.41,20.57,20.57,0,0,0,3.57-.35,4,4,0,0,0,2.71-1.72l.07-.13.13,0a4,4,0,0,0,3.56-1.78,5.81,5.81,0,0,0,1.18-3.7c-.08-2.6-1.27-4.79-2.21-6.72l-.08-.16.16-.06A9.73,9.73,0,0,0,341,118.4a11.13,11.13,0,0,0,1.64-4.18A11.94,11.94,0,0,0,342.63,110.43Z" style="fill:#263238"></path><path d="M331.93,121.52a2.08,2.08,0,0,1-.71-.15,11.9,11.9,0,0,1-1.85-.75,15.82,15.82,0,0,1-8.09-10,11.22,11.22,0,0,1-.35-2c0-.47,0-.73,0-.73s.21,1,.71,2.58a17.28,17.28,0,0,0,7.9,9.73C331,121.1,332,121.43,331.93,121.52Z" style="fill:#263238"></path><path d="M327.62,132.83a13,13,0,0,1,1-1.48,12.42,12.42,0,0,0,1.6-3.86,12.57,12.57,0,0,0,.19-4.19,13.69,13.69,0,0,1-.25-1.75,4.23,4.23,0,0,1,.62,1.69,10.57,10.57,0,0,1-1.85,8.32C328.22,132.46,327.66,132.88,327.62,132.83Z" style="fill:#263238"></path><g style="opacity:0.30000000000000004"><path d="M321,108.48a11.17,11.17,0,0,0,1,5.67,13.82,13.82,0,0,0-6.24,6.11,12.35,12.35,0,0,1,4.76-4.11,2.42,2.42,0,0,1,1.42-.33,2.78,2.78,0,0,1,1,.49c1.36.93,3,2,4.4,2.9a40.68,40.68,0,0,1-4.13-4.48,16,16,0,0,1-2.17-6.25"></path></g><path d="M313.69,110.18c0,.15-1.67.63-3.58,1.65s-3.25,2.17-3.36,2a8,8,0,0,1,3.12-2.51A8.11,8.11,0,0,1,313.69,110.18Z" style="fill:#263238"></path><path d="M314.92,120.8c.11.09-.46,1-1.28,2s-1.57,1.75-1.68,1.66.46-1,1.28-2S314.81,120.71,314.92,120.8Z" style="fill:#263238"></path><path d="M396.9,349.57a12.14,12.14,0,0,0-13,4.29c-3,3.88-2.71,9-.78,13.45a16.09,16.09,0,0,0-7.76,15.49,6.24,6.24,0,0,0,1.09,3.15,2.92,2.92,0,0,0,3,1.16c1.93-.54,2.21-3.11,2.12-5.12a12.88,12.88,0,0,0,3.57,4.67,6.17,6.17,0,0,0,5.59,1.1,4.1,4.1,0,0,0,2.68-4.68c2,3.13,6.49,4.12,10,2.78,4.5-1.73,7.08-6.35,9.29-10.63.93-1.79,1.85-4,.85-5.7,1.56-2.12.33-5.33-1.84-6.81s-4.95-1.67-7.57-1.82A10.66,10.66,0,0,0,396.9,349.57Z" style="fill:#f5f5f5"></path><path d="M396.9,349.57a.9.9,0,0,1,.24.07c.16.05.39.12.7.24a11,11,0,0,1,2.44,1.48,11.29,11.29,0,0,1,2.89,3.54,10,10,0,0,1,1.07,6l-.15-.18c2.14.14,4.68.19,7.08,1.48a6.23,6.23,0,0,1,2.79,3.06,4.47,4.47,0,0,1-.29,4.38v-.23a4.41,4.41,0,0,1,.17,3.54,19.72,19.72,0,0,1-1.52,3.35,30.7,30.7,0,0,1-4.24,6.46,11.06,11.06,0,0,1-7.19,3.88,9.16,9.16,0,0,1-4.28-.66,7.55,7.55,0,0,1-3.46-2.77l.47-.22a4.05,4.05,0,0,1-1.06,3.79,4.71,4.71,0,0,1-3.77,1.49,7.24,7.24,0,0,1-4.64-2.1,14.52,14.52,0,0,1-2.85-4.08l.48-.13a7.35,7.35,0,0,1-.83,4.3,2.65,2.65,0,0,1-1.93,1.16,3.17,3.17,0,0,1-2.11-.68,5.47,5.47,0,0,1-1.77-3.77,15.82,15.82,0,0,1,0-4A16.35,16.35,0,0,1,383,367.12l-.09.27a17.35,17.35,0,0,1-1.43-6.11,11.48,11.48,0,0,1,7.71-11.5,11.61,11.61,0,0,1,5.71-.7,8.41,8.41,0,0,1,2,.49s-.67-.21-2-.36a12.12,12.12,0,0,0-12,6.68,11.66,11.66,0,0,0-1,5.37,17,17,0,0,0,1.44,6l.07.17-.16.1a15.93,15.93,0,0,0-7.58,11.56,15.72,15.72,0,0,0,0,3.88,5,5,0,0,0,1.6,3.43,2.59,2.59,0,0,0,1.76.57,2.14,2.14,0,0,0,1.55-.94,6.91,6.91,0,0,0,.74-4l0-1.18.53,1.05a14.1,14.1,0,0,0,2.74,3.93,6.73,6.73,0,0,0,4.31,2,4.19,4.19,0,0,0,3.37-1.33,3.52,3.52,0,0,0,.94-3.28l-.46-1.62.92,1.4a7.93,7.93,0,0,0,7.27,3.21,10.51,10.51,0,0,0,6.87-3.7,30.91,30.91,0,0,0,4.2-6.35,19.79,19.79,0,0,0,1.5-3.26,4,4,0,0,0-.12-3.2l-.07-.12.08-.12a4.05,4.05,0,0,0,.27-4,5.86,5.86,0,0,0-2.6-2.88c-2.28-1.25-4.78-1.33-6.92-1.49l-.17,0,0-.17a9.74,9.74,0,0,0-1-5.86,11.36,11.36,0,0,0-2.78-3.52A11.92,11.92,0,0,0,396.9,349.57Z" style="fill:#263238"></path><path d="M401.05,364.41s-.15.21-.49.54a10.65,10.65,0,0,1-1.58,1.21,15.83,15.83,0,0,1-12.67,1.94,11.32,11.32,0,0,1-1.87-.68c-.42-.21-.65-.34-.63-.37s1,.33,2.59.7a17.33,17.33,0,0,0,12.39-1.9C400.21,365,401,364.34,401.05,364.41Z" style="fill:#263238"></path><path d="M408.64,373.85a12.21,12.21,0,0,1-.79-1.59,12.19,12.19,0,0,0-6-5.61,14.38,14.38,0,0,1-1.64-.67,4,4,0,0,1,1.77.32,10.45,10.45,0,0,1,6.24,5.81A4.23,4.23,0,0,1,408.64,373.85Z" style="fill:#263238"></path><g style="opacity:0.30000000000000004"><path d="M384.28,367.23a11.21,11.21,0,0,0,5.39,2,13.9,13.9,0,0,0,2.11,8.47,12.46,12.46,0,0,1-1.14-6.19,2.42,2.42,0,0,1,.44-1.39,2.62,2.62,0,0,1,.92-.6c1.49-.71,3.24-1.63,4.73-2.33a39.46,39.46,0,0,1-6,1.29,16.08,16.08,0,0,1-6.5-1.28"></path></g><path d="M382.05,374.41c.15,0-.31,1.76-.39,3.92s.22,3.9.07,3.94a8,8,0,0,1-.59-4A8.14,8.14,0,0,1,382.05,374.41Z" style="fill:#263238"></path><path d="M391.83,378.72a5.54,5.54,0,0,1,1.06,2.1,5.35,5.35,0,0,1,.58,2.29,5.54,5.54,0,0,1-1.06-2.11A5.29,5.29,0,0,1,391.83,378.72Z" style="fill:#263238"></path><path d="M369,452.49a15,15,0,0,0-16.69-1.9,24.46,24.46,0,0,0-8.59-7.44c-3.45-1.63-7.67-2-11.06-.2s-5.62,5.88-4.58,9.55a5.39,5.39,0,0,0,.4,9.6c-4.56-1.87-8,.56-10.35,3.4A9.88,9.88,0,0,0,317.06,476a12.53,12.53,0,0,0,8.59,6.45A17.27,17.27,0,0,0,336.48,481c3.66-1.71,6.93-4.65,8.11-8.52a16.94,16.94,0,0,0,15.54,7,16.24,16.24,0,0,0,13.18-10.66A15.58,15.58,0,0,0,369,452.49Z" style="fill:#f5f5f5"></path><path d="M369,452.49s.07,0,.2.16l.56.5a14,14,0,0,1,1.86,2.28,15.84,15.84,0,0,1,2.48,10.6,14.68,14.68,0,0,1-2.95,7.21,16.71,16.71,0,0,1-7.27,5.48,15.83,15.83,0,0,1-10.25.39,17.24,17.24,0,0,1-9.21-6.5l.42-.06a13.28,13.28,0,0,1-4.68,6.49,19.23,19.23,0,0,1-7.59,3.55,15.63,15.63,0,0,1-8.64-.41,12.66,12.66,0,0,1-6.85-5.66,10.12,10.12,0,0,1,1.09-11.46,11.44,11.44,0,0,1,4.72-3.45,8,8,0,0,1,5.69.26l-.2.46a5.63,5.63,0,0,1-.41-10l-.12.27a7.9,7.9,0,0,1,.4-5.11,9.66,9.66,0,0,1,3-3.9,11.35,11.35,0,0,1,8.84-1.77,16.6,16.6,0,0,1,7.38,3.52,30.65,30.65,0,0,1,4.95,5.19l-.2,0a14.48,14.48,0,0,1,7.34-1.68A15.42,15.42,0,0,1,365,450a15.25,15.25,0,0,1,3,1.73c.31.25.54.45.69.58s.23.2.22.21l-.25-.18-.71-.54a16,16,0,0,0-3-1.65,15.86,15.86,0,0,0-5.43-1.1,14.43,14.43,0,0,0-7.18,1.71l-.12.07-.08-.11a30.42,30.42,0,0,0-4.92-5.09,16.19,16.19,0,0,0-7.23-3.41,10.93,10.93,0,0,0-8.5,1.73,9.12,9.12,0,0,0-2.86,3.72,7.38,7.38,0,0,0-.37,4.8l0,.18-.16.09a5.14,5.14,0,0,0,.39,9.16l-.2.46a7.42,7.42,0,0,0-5.33-.23,10.85,10.85,0,0,0-4.5,3.3,9.6,9.6,0,0,0-1,10.87,12.16,12.16,0,0,0,6.56,5.42,15.18,15.18,0,0,0,8.36.4,18.61,18.61,0,0,0,7.39-3.44,12.83,12.83,0,0,0,4.53-6.25l.15-.46.28.4a16.86,16.86,0,0,0,8.95,6.34,15.39,15.39,0,0,0,10-.33,16.41,16.41,0,0,0,7.14-5.33,14.5,14.5,0,0,0,2.95-7,15.75,15.75,0,0,0-.45-6.22,15.93,15.93,0,0,0-1.88-4.26A16.39,16.39,0,0,0,369,452.49Z" style="fill:#263238"></path><path d="M330.1,469.24c-1.05-1.07-2.2-1.56-2.19-3.06-1.91-.37-3.71.91-5.13,2.23a11.67,11.67,0,0,0-2.62,3.28,5,5,0,0,0-.26,4.09c.28.63.92,1.25,1.58,1.05.36-.11.65-.46,1-.45.57,0,.78.74,1.08,1.23a1.87,1.87,0,0,0,3.33-1.66c1,.91,2.7.33,3.73-.58a3.85,3.85,0,0,0,1.37-2.23C332.23,471.65,331.15,470.32,330.1,469.24Z" style="fill:#FF3365"></path><path d="M350.83,450.31a2.18,2.18,0,0,1,.23.8,7.51,7.51,0,0,1,0,2.28,19.94,19.94,0,0,1-2.66,7,22.94,22.94,0,0,0-2.77,6.77,15.28,15.28,0,0,0-.1,3,2,2,0,0,1-.23-.8,7.92,7.92,0,0,1,0-2.28,20.11,20.11,0,0,1,2.67-7,22.25,22.25,0,0,0,2.76-6.77A16.73,16.73,0,0,0,350.83,450.31Z" style="fill:#263238"></path><path d="M344.8,452.66c-.23-1,.59-2.82.6-3.13,0-.77-1.44-.53-2.09-.11s-1.11,1.06-1.74,1.5c-1.7,1.17-4.15.54-5.93,1.58a7.13,7.13,0,0,0-2.52,3.55c-.22.53-.43,1.21,0,1.62s.44-.1.81-.25.86-.49,1.22-.66c2.46-1.16,4.86-1.05,7.83.6.6-1.36,2.24-2.6,3.7-2.31A4.85,4.85,0,0,1,344.8,452.66Z" style="fill:#FF3365"></path><path d="M346.65,461.52a13.55,13.55,0,0,0-2.16-2.77,9.37,9.37,0,0,0-3.23-1.91,8.1,8.1,0,0,0-8.54,1.84,9.36,9.36,0,0,0-2.16,3.07,13.1,13.1,0,0,0-.82,3.41,2.53,2.53,0,0,1-.07-1,7.84,7.84,0,0,1,.55-2.59,9.29,9.29,0,0,1,2.17-3.28,8.36,8.36,0,0,1,9-1.94,9.33,9.33,0,0,1,3.33,2.09,8,8,0,0,1,1.56,2.13A3.21,3.21,0,0,1,346.65,461.52Z" style="fill:#263238"></path><path d="M347.24,448c0,.08-.44.31-1,.93a5.32,5.32,0,0,0-1.19,2.89,2.72,2.72,0,0,0,.32,1.61,4,4,0,0,0,.94,1.05c.65.51,1.1.81,1.06.88a3,3,0,0,1-1.28-.59,3.83,3.83,0,0,1-1.13-1.09,3,3,0,0,1-.42-1.91,4.91,4.91,0,0,1,1.44-3.1C346.66,448.05,347.23,447.94,347.24,448Z" style="fill:#263238"></path><path d="M327,476.18a5,5,0,0,0,2.41-.19,3.36,3.36,0,0,0,1.83-1.71,3.48,3.48,0,0,0,0-3,11.84,11.84,0,0,0-2.07-2.51,5.56,5.56,0,0,1-1.46-2.4,2.75,2.75,0,0,1,.18-1.9c.21-.41.44-.54.46-.52s-.14.21-.28.6a2.82,2.82,0,0,0,0,1.72,5.61,5.61,0,0,0,1.46,2.17A11.16,11.16,0,0,1,331.7,471a3.89,3.89,0,0,1,0,3.46,3.68,3.68,0,0,1-4,2C327.22,476.34,327,476.21,327,476.18Z" style="fill:#263238"></path><g style="opacity:0.30000000000000004"><path d="M351,451.8a17.46,17.46,0,0,1-2,6.48,43.38,43.38,0,0,0-2.95,6.15c-.67,2.18-1,3.51-.49,5.73a12.33,12.33,0,0,1,.53-4.05,11.64,11.64,0,0,1,1.87-3c2-2.63,2.45-3.21,3.24-5.35C351.83,456.08,351.51,454.39,351,451.8Z"></path></g><path d="M151.3,427.45c-2-5.69-10.44-3.71-14.13-.48a10.62,10.62,0,0,0-3.49,5.58,8.3,8.3,0,0,0,8.78,10c-.61,1.8.93,3.87,2.81,4.16a4.85,4.85,0,0,0,4.73-2.58,9.61,9.61,0,0,0,4.26,6.34,5.59,5.59,0,0,0,4.55,9.66,5.91,5.91,0,0,0,4.66,5.24,9.51,9.51,0,0,0,10.88-8.61c0-3.73-2.93-6.73-5.65-9.29a15.38,15.38,0,0,0,5.81-4.11,21.46,21.46,0,0,0,2.18-3.06c.39-.65.77-1.32,1.11-2,2.24-4.36,3.38-9.94.61-14a16.34,16.34,0,0,0-4.63-4.08c-3.93-2.63-8.7-5.16-13.16-3.62a15.62,15.62,0,0,0-6.92,4.87,11.33,11.33,0,0,0-2.4,5.94" style="fill:#fff"></path><path d="M151.3,427.45a7.42,7.42,0,0,1,.12-1.22,10.54,10.54,0,0,1,1.26-3.31,12.77,12.77,0,0,1,1.47-2.13,13.82,13.82,0,0,1,2.3-2.08,17.55,17.55,0,0,1,3.09-1.8,9.16,9.16,0,0,1,3.94-.89c2.9,0,5.89,1.28,8.75,3a39.23,39.23,0,0,1,4.31,3,11.25,11.25,0,0,1,1.92,2,9.68,9.68,0,0,1,1.29,2.57,12.51,12.51,0,0,1,.28,5.94,21,21,0,0,1-2,5.91,25.26,25.26,0,0,1-3.62,5.42,15.59,15.59,0,0,1-5.59,3.85l.08-.42a29.84,29.84,0,0,1,3.55,3.79,9.92,9.92,0,0,1,2.15,4.93,7.9,7.9,0,0,1-1.46,5.31A10.69,10.69,0,0,1,168.8,465a8,8,0,0,1-6.52.3,6,6,0,0,1-3.73-5.11l.29.25a5.84,5.84,0,0,1-4.74-10.09l0,.39a9.88,9.88,0,0,1-4.36-6.51l.44.08a5.06,5.06,0,0,1-5.09,2.66,3.82,3.82,0,0,1-2.41-1.64,3.2,3.2,0,0,1-.46-2.79l.23.28a8.5,8.5,0,0,1-8.89-10.65,11,11,0,0,1,3.69-5.45,13.66,13.66,0,0,1,5-2.49,11.15,11.15,0,0,1,4.49-.37,6,6,0,0,1,3,1.32c.16.16.32.3.47.44a5.53,5.53,0,0,1,.32.46l.28.39.15.36c.19.43.26.65.26.65s-.12-.21-.32-.62l-.17-.35-.28-.38c-.1-.13-.2-.29-.33-.43l-.47-.42a5.77,5.77,0,0,0-3-1.22,11.14,11.14,0,0,0-4.4.41,13.44,13.44,0,0,0-4.89,2.49,10.66,10.66,0,0,0-3.54,5.3,8.12,8.12,0,0,0,8.51,10.13l.33,0-.1.32a3.2,3.2,0,0,0,2.53,3.84,4.58,4.58,0,0,0,4.59-2.45l.32-.57.12.65a9.37,9.37,0,0,0,4.17,6.17l.27.17-.24.22a5.34,5.34,0,0,0,4.34,9.22l.28,0v.29a5.52,5.52,0,0,0,3.43,4.65,7.49,7.49,0,0,0,6.1-.31,10.19,10.19,0,0,0,4.09-3.43,7.44,7.44,0,0,0,1.38-5,9.42,9.42,0,0,0-2-4.68,30.19,30.19,0,0,0-3.49-3.73l-.29-.27.37-.15a15.28,15.28,0,0,0,5.41-3.71,24.43,24.43,0,0,0,3.56-5.31,21,21,0,0,0,2-5.77,12,12,0,0,0-.24-5.73,9.43,9.43,0,0,0-3.07-4.41,38.41,38.41,0,0,0-4.24-3c-2.82-1.74-5.75-3-8.55-3a8.87,8.87,0,0,0-3.82.83,17.13,17.13,0,0,0-3.06,1.74,13.52,13.52,0,0,0-2.29,2,14,14,0,0,0-1.49,2.07,11,11,0,0,0-1.31,3.25c-.08.39-.13.69-.16.9A1,1,0,0,1,151.3,427.45Z" style="fill:#263238"></path><path d="M167,443.55s0,.09-.13.23a2.67,2.67,0,0,1-.56.51,4.42,4.42,0,0,1-2.68.62,8.24,8.24,0,0,1-4-1.22,4.73,4.73,0,0,1-2.25-4.49l.34.28a4.54,4.54,0,0,1-1.06.23,9.19,9.19,0,0,1-2.85-.25,4.76,4.76,0,0,1-2.44-1.14,4.85,4.85,0,0,1-1.17-4.27,9,9,0,0,1,1.08-2.8,4.36,4.36,0,0,1,.61-.91,4.93,4.93,0,0,1-.43,1,10.22,10.22,0,0,0-.89,2.77,4.47,4.47,0,0,0,1.14,3.86,4.22,4.22,0,0,0,2.21,1,8.33,8.33,0,0,0,2.68.23,4,4,0,0,0,1-.2l.4-.14-.06.43a4.3,4.3,0,0,0,2,4,8.06,8.06,0,0,0,3.7,1.25,4.49,4.49,0,0,0,2.56-.43A8,8,0,0,0,167,443.55Z" style="fill:#263238"></path><path d="M161.07,447.73a9.56,9.56,0,0,1-1.22,0,6.56,6.56,0,0,0-2.71.81,13.41,13.41,0,0,0-2.34,1.71c-.57.5-.92.82-1,.77s.21-.45.72-1a9,9,0,0,1,2.35-1.91,5.61,5.61,0,0,1,3-.72C160.65,447.43,161.09,447.67,161.07,447.73Z" style="fill:#263238"></path><path d="M150.5,438c.15,0-.29,1.6-.37,3.55s.21,3.54.06,3.57a6.67,6.67,0,0,1-.58-3.59A6.75,6.75,0,0,1,150.5,438Z" style="fill:#263238"></path><g style="opacity:0.30000000000000004"><path d="M165,444.66a6.72,6.72,0,0,1-5-1.05,5.23,5.23,0,0,1-2.42-4.37c-2.41.52-5,.21-6.63-1.64a5.28,5.28,0,0,0,5.48,2.69,4.3,4.3,0,0,0,1.8,3.37,8.92,8.92,0,0,0,3.63,1.48,5.85,5.85,0,0,0,4.11-.28,6.51,6.51,0,0,0,2.51-3C167.45,443.14,166.53,444.41,165,444.66Z"></path></g><path d="M194.6,467.68a6.64,6.64,0,0,0,2.9-11,5.12,5.12,0,0,0-6.58-5.91A8.11,8.11,0,0,0,179,458a12.77,12.77,0,1,0,1.56,21.79,7.72,7.72,0,0,1,2.29-1.35c1.39-.38,2.83.3,4.19.79a11.73,11.73,0,0,0,8.29.17,7.24,7.24,0,0,0,4.68-6.47C200,470.05,197.41,467.36,194.6,467.68Z" style="fill:#f5f5f5"></path><path d="M194.6,467.68a3.66,3.66,0,0,1,1.29,0,5.09,5.09,0,0,1,3.1,2,5.4,5.4,0,0,1,1.1,2.47,5.72,5.72,0,0,1-.4,3.19,8,8,0,0,1-6,4.69,11.89,11.89,0,0,1-4.56-.06,15.16,15.16,0,0,1-2.34-.67,15.12,15.12,0,0,0-2.34-.74,3.27,3.27,0,0,0-2.34.4c-.72.42-1.4,1-2.2,1.49a13.32,13.32,0,0,1-11.2,1.07,12.42,12.42,0,0,1-5.09-3.45,13.48,13.48,0,0,1-3-5.6,12.63,12.63,0,0,1,.09-6.57,13.63,13.63,0,0,1,2.86-5.26,12.53,12.53,0,0,1,4.77-3.37,13.39,13.39,0,0,1,10.83.47l-.35.21A8.34,8.34,0,0,1,191,450.58h-.16a5.3,5.3,0,0,1,6.8,6.13l0-.14a6.94,6.94,0,0,1,1.84,5.42,6.51,6.51,0,0,1-1.8,3.87,6.64,6.64,0,0,1-2.19,1.55,4.9,4.9,0,0,1-.87.28s.3-.11.84-.36a7.23,7.23,0,0,0,2.1-1.58,6.45,6.45,0,0,0,1.67-3.79,6.68,6.68,0,0,0-1.82-5.17l-.06-.06,0-.08A5.09,5.09,0,0,0,196,452.2a5,5,0,0,0-5-1.24l-.08,0-.07,0a8.11,8.11,0,0,0-7.41.06,8,8,0,0,0-4.15,6.95v.4l-.35-.18a12.89,12.89,0,0,0-10.43-.42,12,12,0,0,0-4.56,3.23,13.11,13.11,0,0,0-2.75,5.07,11.89,11.89,0,0,0-.08,6.29,12.93,12.93,0,0,0,2.91,5.39,12.14,12.14,0,0,0,4.88,3.33,13,13,0,0,0,10.8-1c.76-.45,1.42-1,2.21-1.49a3.65,3.65,0,0,1,2.63-.43,14.46,14.46,0,0,1,2.41.77,15.06,15.06,0,0,0,2.28.66,11.33,11.33,0,0,0,4.41.09,7.72,7.72,0,0,0,5.79-4.43,5.6,5.6,0,0,0,.43-3,5.43,5.43,0,0,0-1-2.39,5.08,5.08,0,0,0-3-2A6.82,6.82,0,0,0,194.6,467.68Z" style="fill:#263238"></path><g style="opacity:0.30000000000000004"><path d="M177.94,469.22a21.71,21.71,0,0,1,1-8.44c-2,2.33-2.89,4.64-2.41,8.88a8.25,8.25,0,0,0,5.61,6.91C180.26,474.75,178.3,472,177.94,469.22Z"></path></g><path d="M192.81,467.5s-.24.71-1.34,1.17a2.91,2.91,0,0,1-2.05,0,3.13,3.13,0,0,1-1.87-1.84l.21.16a8.19,8.19,0,0,1-2.71-.66,6.43,6.43,0,0,1-2.78-2.24,5.35,5.35,0,0,1-.89-2.78,3.33,3.33,0,0,1,.79-2.52,6,6,0,0,0-.42,2.5,5.16,5.16,0,0,0,.92,2.53,6.22,6.22,0,0,0,2.59,2,8.76,8.76,0,0,0,2.55.64l.16,0,.05.14a2.74,2.74,0,0,0,1.55,1.61,2.68,2.68,0,0,0,1.8.07A4.54,4.54,0,0,0,192.81,467.5Z" style="fill:#263238"></path><path d="M182.5,477.1a9.53,9.53,0,0,1-2-2,12.22,12.22,0,0,1-2.85-6.14,15.28,15.28,0,0,1,.52-6.76,13.66,13.66,0,0,1,.77-1.92,2.07,2.07,0,0,1,.4-.64c.08,0-.39,1-.81,2.66a16.81,16.81,0,0,0-.37,6.58,13,13,0,0,0,2.63,6C181.82,476.27,182.56,477,182.5,477.1Z" style="fill:#263238"></path><path d="M198.47,476.14a3.17,3.17,0,0,1-1.27.28,8.26,8.26,0,0,1-3.13-.24,5.07,5.07,0,0,1-2.64-1.75c-.5-.66-.58-1.19-.52-1.2s.27.42.8,1a5.62,5.62,0,0,0,2.5,1.48,11.7,11.7,0,0,0,3,.37C198,476.06,198.46,476.06,198.47,476.14Z" style="fill:#263238"></path><path d="M152.53,451.88a12.44,12.44,0,0,0-8.49-1.37,10.78,10.78,0,0,0-6.75,4.23,5.28,5.28,0,0,0,2.68,5.33,8.52,8.52,0,0,0,6.18.7A23.25,23.25,0,0,0,152,458.3c1.33-.72,2.81-1.71,2.89-3.22S153.74,452.56,152.53,451.88Z" style="fill:#FF3365"></path><g style="opacity:0.30000000000000004"><path d="M139,458.19l.11.92a2.15,2.15,0,0,0,1.56,1.33,5.7,5.7,0,0,0,2.1,0,25.57,25.57,0,0,0,6.79-1.67,11.62,11.62,0,0,0,5.37-4.42A18.92,18.92,0,0,0,139,458.19Z"></path></g><path d="M161.56,456.23c-6.09-3.43-13.78-1-19.93,2.3l-1.21.76c-1.58-1.7-3.22-3.5-3.8-5.74s.33-5.06,2.53-5.8c1.87-.63,4.14.36,5.81-.7a3.51,3.51,0,0,0,1-4.38,6.77,6.77,0,0,0-3.67-3.09,13.5,13.5,0,0,0-16.87,6.74,7.86,7.86,0,0,0-7.79,13.49,11.62,11.62,0,0,0-.73,12.27,12.18,12.18,0,0,0,21.75,6.67,21.07,21.07,0,0,0,16.53,3.77c5.69-1.25,10.75-5.57,12.31-11.19S166.63,459.09,161.56,456.23Z" style="fill:#fff"></path><path d="M161.56,456.23l.22.11.62.38c.27.17.58.42,1,.7a15.39,15.39,0,0,1,1.18,1.15,13.31,13.31,0,0,1,2.43,3.85,14.21,14.21,0,0,1,1.07,6.05,13.79,13.79,0,0,1-2.42,7.19,17.08,17.08,0,0,1-6.78,5.79,18,18,0,0,1-10,1.56,22.5,22.5,0,0,1-10.4-4.07l.32-.05a12.43,12.43,0,0,1-22.19-6.79l0,.1a11.87,11.87,0,0,1,.69-12.47l.05-.07,0,.36a8.11,8.11,0,0,1,8-13.93l-.33.13a13.28,13.28,0,0,1,2-3.14A14.78,14.78,0,0,1,130,440.7a14.32,14.32,0,0,1,6.74-2.21,12.22,12.22,0,0,1,6.65,1.38,6.55,6.55,0,0,1,2.47,2.23,4.19,4.19,0,0,1,.52,3.23,3.31,3.31,0,0,1-.78,1.45,3.1,3.1,0,0,1-1.4.83,10.52,10.52,0,0,1-3.05.12,4.63,4.63,0,0,0-2.68.56,4,4,0,0,0-1.55,2.12,5.56,5.56,0,0,0-.24,2.58,7.3,7.3,0,0,0,.86,2.38,19.87,19.87,0,0,0,3,3.8l-.21,0c6-3.67,11.77-5,15.61-4.63a13.44,13.44,0,0,1,4.27,1,12.68,12.68,0,0,1,1.35.7,1.5,1.5,0,0,1-.36-.15c-.23-.1-.56-.29-1-.46a13.7,13.7,0,0,0-4.25-.92c-3.79-.29-9.45,1.06-15.42,4.73l-.12.07-.09-.1a20.57,20.57,0,0,1-3.06-3.85,7.79,7.79,0,0,1-.91-2.5,5.83,5.83,0,0,1,.24-2.77,4.46,4.46,0,0,1,1.7-2.33,4.87,4.87,0,0,1,2.91-.63,10.5,10.5,0,0,0,2.92-.13,2.62,2.62,0,0,0,1.87-2,3.72,3.72,0,0,0-.47-2.88,6.21,6.21,0,0,0-2.32-2.07,11.79,11.79,0,0,0-6.39-1.3,13.82,13.82,0,0,0-6.5,2.15,14.37,14.37,0,0,0-2.71,2.29,13.06,13.06,0,0,0-2,3l-.11.23-.22-.1a7.6,7.6,0,0,0-7.53,13.05l.19.15-.14.21,0,.07A11.42,11.42,0,0,0,117.1,472l0,.05v.06a11.93,11.93,0,0,0,21.3,6.54l.14-.17.18.13a22.19,22.19,0,0,0,10.18,4,17.7,17.7,0,0,0,9.75-1.49,16.72,16.72,0,0,0,6.66-5.63,13.57,13.57,0,0,0,2.42-7,14,14,0,0,0-1-5.95,13.48,13.48,0,0,0-2.34-3.84A13.25,13.25,0,0,0,161.56,456.23Z" style="fill:#263238"></path><path d="M139.55,459.83a31.71,31.71,0,0,0-2.71-2.37,13.95,13.95,0,0,0-16.19-.2,29.43,29.43,0,0,0-2.77,2.32,2.73,2.73,0,0,1,.57-.8,12.4,12.4,0,0,1,2-1.82,13.71,13.71,0,0,1,16.63.2A12.47,12.47,0,0,1,139,459,3.7,3.7,0,0,1,139.55,459.83Z" style="fill:#263238"></path><path d="M129.87,454.51a3,3,0,0,1-1.39-.62,7.53,7.53,0,0,1-3.24-6.36,2.72,2.72,0,0,1,.32-1.48,9.73,9.73,0,0,1,0,1.48,8.66,8.66,0,0,0,.92,3.35,8.46,8.46,0,0,0,2.17,2.71C129.4,454.16,129.9,454.43,129.87,454.51Z" style="fill:#263238"></path><g style="opacity:0.30000000000000004"><path d="M139.17,477.4a19.59,19.59,0,0,1,.92-16.36s-3.89,4.71-3.47,9.34A12.82,12.82,0,0,0,139.17,477.4Z"></path></g><path d="M139.17,477.4a7.71,7.71,0,0,1-.94-2.31,18.46,18.46,0,0,1,.66-11.86,7.5,7.5,0,0,1,1.2-2.19,22.67,22.67,0,0,0-.92,16.36Z" style="fill:#263238"></path><path d="M126,472.39c0,.06-.42.39-1.26.71a8.61,8.61,0,0,1-3.46.5,8.5,8.5,0,0,1-3.37-.89c-.8-.41-1.21-.79-1.18-.84a15.68,15.68,0,0,0,4.58,1.21A15.59,15.59,0,0,0,126,472.39Z" style="fill:#263238"></path></g></svg>